<?xml version="1.0" encoding="UTF-8" standalone="no"?>
<!DOCTYPE svg PUBLIC "-//W3C//DTD SVG 1.1//EN" "http://www.w3.org/Graphics/SVG/1.1/DTD/svg11.dtd">
<svg width="100%" height="100%" viewBox="0 0 128 72" version="1.1" xmlns="http://www.w3.org/2000/svg" xmlns:xlink="http://www.w3.org/1999/xlink" xml:space="preserve" xmlns:serif="http://www.serif.com/" style="fill-rule:evenodd;clip-rule:evenodd;stroke-linejoin:round;stroke-miterlimit:2;">
    <g transform="matrix(1,0,0,1,-480.657,-363.76)">
        <g transform="matrix(1,0,0,1,-25.3469,41.8979)">
            <path d="M527.555,322.438C527.971,322.438 528.315,322.582 528.587,322.87C528.859,323.158 528.995,323.51 528.995,323.926L528.995,345.526C528.995,345.91 528.851,346.246 528.563,346.534C528.275,346.822 527.939,346.966 527.555,346.966C527.139,346.966 526.795,346.822 526.523,346.534C526.251,346.246 526.115,345.91 526.115,345.526L526.115,339.814L526.931,339.43C526.931,340.326 526.683,341.238 526.187,342.166C525.691,343.094 525.011,343.958 524.147,344.758C523.283,345.558 522.267,346.206 521.099,346.702C519.931,347.198 518.675,347.446 517.331,347.446C515.155,347.446 513.211,346.886 511.499,345.766C509.787,344.646 508.443,343.11 507.467,341.158C506.491,339.206 506.003,337.014 506.003,334.582C506.003,332.086 506.499,329.886 507.491,327.982C508.483,326.078 509.827,324.582 511.523,323.494C513.219,322.406 515.139,321.862 517.283,321.862C518.659,321.862 519.947,322.102 521.147,322.582C522.347,323.062 523.395,323.718 524.291,324.55C525.187,325.382 525.883,326.334 526.379,327.406C526.875,328.478 527.123,329.59 527.123,330.742L526.115,330.022L526.115,323.926C526.115,323.51 526.251,323.158 526.523,322.87C526.795,322.582 527.139,322.438 527.555,322.438ZM517.571,344.758C519.267,344.758 520.771,344.318 522.083,343.438C523.395,342.558 524.427,341.342 525.179,339.79C525.931,338.238 526.307,336.502 526.307,334.582C526.307,332.694 525.931,330.998 525.179,329.494C524.427,327.99 523.395,326.79 522.083,325.894C520.771,324.998 519.267,324.55 517.571,324.55C515.907,324.55 514.411,324.982 513.083,325.846C511.755,326.71 510.715,327.894 509.963,329.398C509.211,330.902 508.835,332.63 508.835,334.582C508.835,336.502 509.211,338.238 509.963,339.79C510.715,341.342 511.747,342.558 513.059,343.438C514.371,344.318 515.875,344.758 517.571,344.758Z" style="fill:url(#_Linear1);fill-rule:nonzero;"/>
            <path d="M554.387,322.582C554.803,322.582 555.147,322.726 555.419,323.014C555.691,323.302 555.827,323.638 555.827,324.022L555.827,337.558C555.827,340.726 554.931,343.142 553.139,344.806C551.347,346.47 548.931,347.302 545.891,347.302C542.883,347.302 540.491,346.47 538.715,344.806C536.939,343.142 536.051,340.726 536.051,337.558L536.051,324.022C536.051,323.638 536.187,323.302 536.459,323.014C536.731,322.726 537.075,322.582 537.491,322.582C537.907,322.582 538.251,322.726 538.523,323.014C538.795,323.302 538.931,323.638 538.931,324.022L538.931,337.558C538.931,339.862 539.547,341.614 540.779,342.814C542.011,344.014 543.715,344.614 545.891,344.614C548.099,344.614 549.827,344.014 551.075,342.814C552.323,341.614 552.947,339.862 552.947,337.558L552.947,324.022C552.947,323.638 553.075,323.302 553.331,323.014C553.587,322.726 553.939,322.582 554.387,322.582Z" style="fill:url(#_Linear2);fill-rule:nonzero;"/>
            <path d="M573.107,321.862C574.547,321.862 575.875,322.11 577.091,322.606C578.307,323.102 579.371,323.742 580.283,324.526C581.195,325.31 581.907,326.142 582.419,327.022C582.931,327.902 583.187,328.742 583.187,329.542L582.371,328.39L582.371,323.926C582.371,323.51 582.507,323.158 582.779,322.87C583.051,322.582 583.395,322.438 583.811,322.438C584.259,322.438 584.611,322.582 584.867,322.87C585.123,323.158 585.251,323.51 585.251,323.926L585.251,344.71C585.251,347.27 584.723,349.43 583.667,351.19C582.611,352.95 581.179,354.286 579.371,355.198C577.563,356.11 575.507,356.566 573.203,356.566C572.083,356.566 570.907,356.422 569.675,356.134C568.443,355.846 567.387,355.478 566.507,355.03C565.627,354.582 565.139,354.118 565.043,353.638C564.787,353.35 564.667,353.07 564.683,352.798C564.699,352.526 564.835,352.294 565.091,352.102C565.411,351.878 565.747,351.854 566.099,352.03C566.451,352.206 566.979,352.438 567.683,352.726C568.003,352.822 568.435,352.966 568.979,353.158C569.523,353.35 570.171,353.518 570.923,353.662C571.675,353.806 572.467,353.878 573.299,353.878C576.179,353.878 578.411,353.054 579.995,351.406C581.579,349.758 582.371,347.59 582.371,344.902L582.371,340.294L582.899,340.438C582.611,341.59 582.139,342.598 581.483,343.462C580.827,344.326 580.051,345.054 579.155,345.646C578.259,346.238 577.291,346.686 576.251,346.99C575.211,347.294 574.179,347.446 573.155,347.446C570.947,347.446 568.963,346.886 567.203,345.766C565.443,344.646 564.043,343.126 563.003,341.206C561.963,339.286 561.443,337.094 561.443,334.63C561.443,332.198 561.963,330.014 563.003,328.078C564.043,326.142 565.435,324.622 567.179,323.518C568.923,322.414 570.899,321.862 573.107,321.862ZM573.443,324.55C571.683,324.55 570.107,324.99 568.715,325.87C567.323,326.75 566.235,327.95 565.451,329.47C564.667,330.99 564.275,332.71 564.275,334.63C564.275,336.55 564.667,338.278 565.451,339.814C566.235,341.35 567.323,342.558 568.715,343.438C570.107,344.318 571.683,344.758 573.443,344.758C575.203,344.758 576.771,344.326 578.147,343.462C579.523,342.598 580.611,341.406 581.411,339.886C582.211,338.366 582.611,336.614 582.611,334.63C582.611,332.646 582.211,330.894 581.411,329.374C580.611,327.854 579.523,326.67 578.147,325.822C576.771,324.974 575.203,324.55 573.443,324.55Z" style="fill:url(#_Linear3);fill-rule:nonzero;"/>
            <path d="M610.787,322.582C611.203,322.582 611.547,322.726 611.819,323.014C612.091,323.302 612.227,323.638 612.227,324.022L612.227,337.558C612.227,340.726 611.331,343.142 609.539,344.806C607.747,346.47 605.331,347.302 602.291,347.302C599.283,347.302 596.891,346.47 595.115,344.806C593.339,343.142 592.451,340.726 592.451,337.558L592.451,324.022C592.451,323.638 592.587,323.302 592.859,323.014C593.131,322.726 593.475,322.582 593.891,322.582C594.307,322.582 594.651,322.726 594.923,323.014C595.195,323.302 595.331,323.638 595.331,324.022L595.331,337.558C595.331,339.862 595.947,341.614 597.179,342.814C598.411,344.014 600.115,344.614 602.291,344.614C604.499,344.614 606.227,344.014 607.475,342.814C608.723,341.614 609.347,339.862 609.347,337.558L609.347,324.022C609.347,323.638 609.475,323.302 609.731,323.014C609.987,322.726 610.339,322.582 610.787,322.582Z" style="fill:url(#_Linear4);fill-rule:nonzero;"/>
            <path d="M621.203,346.966C620.755,346.966 620.403,346.822 620.147,346.534C619.891,346.246 619.763,345.91 619.763,345.526L619.763,324.022C619.763,323.638 619.899,323.302 620.171,323.014C620.443,322.726 620.787,322.582 621.203,322.582C621.619,322.582 621.963,322.726 622.235,323.014C622.507,323.302 622.643,323.638 622.643,324.022L622.643,331.222L621.923,331.366C622.019,330.246 622.299,329.134 622.763,328.03C623.227,326.926 623.859,325.91 624.659,324.982C625.459,324.054 626.411,323.302 627.515,322.726C628.619,322.15 629.859,321.862 631.235,321.862C631.811,321.862 632.371,321.982 632.915,322.222C633.459,322.462 633.731,322.854 633.731,323.398C633.731,323.878 633.603,324.246 633.347,324.502C633.091,324.758 632.787,324.886 632.435,324.886C632.147,324.886 631.835,324.806 631.499,324.646C631.163,324.486 630.723,324.406 630.179,324.406C629.283,324.406 628.387,324.67 627.491,325.198C626.595,325.726 625.779,326.438 625.043,327.334C624.307,328.23 623.723,329.23 623.291,330.334C622.859,331.438 622.643,332.55 622.643,333.67L622.643,345.526C622.643,345.91 622.499,346.246 622.211,346.534C621.923,346.822 621.587,346.966 621.203,346.966Z" style="fill:url(#_Linear5);fill-rule:nonzero;"/>
        </g>
        <g transform="matrix(1,0,0,1,-1.42109e-14,3.85401)">
            <g transform="matrix(12.1,0,0,12.1,480.657,414.594)">
                <path d="M0.105,0.081L0.105,-0.7L0.277,-0.7L0.277,-0.65L0.163,-0.65L0.163,0.031L0.277,0.031L0.277,0.081L0.105,0.081Z" style="fill:rgb(0,109,255);fill-rule:nonzero;"/>
            </g>
            <g transform="matrix(12.1,0,0,12.1,484.262,414.594)">
                <path d="M0.215,0.009C0.184,0.009 0.158,0.002 0.138,-0.012C0.117,-0.025 0.103,-0.043 0.094,-0.064C0.085,-0.085 0.082,-0.107 0.084,-0.13C0.087,-0.163 0.097,-0.19 0.114,-0.21C0.131,-0.231 0.152,-0.246 0.178,-0.256C0.203,-0.265 0.23,-0.27 0.259,-0.27C0.279,-0.27 0.301,-0.268 0.323,-0.263C0.345,-0.258 0.366,-0.25 0.385,-0.241L0.391,-0.309C0.396,-0.356 0.39,-0.39 0.373,-0.41C0.356,-0.431 0.33,-0.441 0.296,-0.441C0.276,-0.441 0.258,-0.438 0.241,-0.432C0.224,-0.426 0.21,-0.416 0.199,-0.402C0.188,-0.388 0.182,-0.371 0.18,-0.348L0.122,-0.348C0.125,-0.383 0.135,-0.41 0.153,-0.43C0.17,-0.45 0.192,-0.464 0.217,-0.472C0.243,-0.481 0.269,-0.485 0.296,-0.485C0.345,-0.485 0.383,-0.471 0.41,-0.444C0.437,-0.417 0.448,-0.371 0.442,-0.308L0.412,-0L0.369,-0L0.371,-0.087C0.355,-0.055 0.333,-0.03 0.304,-0.015C0.276,0.001 0.246,0.009 0.215,0.009ZM0.22,-0.036C0.246,-0.036 0.271,-0.043 0.296,-0.056C0.321,-0.07 0.342,-0.089 0.358,-0.114C0.374,-0.139 0.382,-0.169 0.381,-0.204C0.36,-0.211 0.339,-0.216 0.319,-0.22C0.298,-0.224 0.278,-0.226 0.259,-0.226C0.227,-0.226 0.2,-0.219 0.178,-0.205C0.155,-0.191 0.142,-0.166 0.138,-0.13C0.136,-0.104 0.141,-0.082 0.154,-0.064C0.166,-0.045 0.188,-0.036 0.22,-0.036Z" style="fill:rgb(0,109,255);fill-rule:nonzero;"/>
            </g>
            <g transform="matrix(12.1,0,0,12.1,490.216,414.594)">
                <path d="M0.064,-0.474L0.117,-0.474L0.194,-0.076L0.34,-0.453L0.38,-0.453L0.457,-0.07L0.608,-0.474L0.66,-0.474L0.475,-0L0.426,-0L0.35,-0.359L0.21,-0L0.161,-0L0.064,-0.474Z" style="fill:rgb(0,109,255);fill-rule:nonzero;"/>
            </g>
            <g transform="matrix(12.1,0,0,12.1,497.911,414.594)">
                <path d="M0.055,-0.261L0.059,-0.31L0.301,-0.31L0.295,-0.261L0.055,-0.261Z" style="fill:rgb(0,109,255);fill-rule:nonzero;"/>
            </g>
            <g transform="matrix(12.1,0,0,12.1,501.565,414.594)">
                <path d="M0.218,0.243C0.175,0.243 0.139,0.237 0.109,0.224C0.079,0.211 0.056,0.193 0.041,0.171C0.026,0.149 0.02,0.124 0.022,0.096C0.024,0.069 0.033,0.046 0.049,0.027C0.065,0.008 0.087,-0.005 0.113,-0.014C0.096,-0.022 0.084,-0.034 0.076,-0.049C0.068,-0.063 0.065,-0.079 0.067,-0.097C0.069,-0.12 0.078,-0.14 0.094,-0.155C0.11,-0.17 0.128,-0.18 0.15,-0.185C0.137,-0.201 0.128,-0.219 0.122,-0.241C0.116,-0.262 0.114,-0.286 0.116,-0.312C0.12,-0.347 0.13,-0.377 0.147,-0.403C0.163,-0.429 0.185,-0.449 0.211,-0.464C0.238,-0.478 0.267,-0.485 0.3,-0.485C0.321,-0.485 0.341,-0.482 0.36,-0.475C0.378,-0.468 0.394,-0.459 0.406,-0.446C0.411,-0.468 0.42,-0.487 0.431,-0.504C0.442,-0.521 0.456,-0.534 0.473,-0.543C0.49,-0.552 0.511,-0.557 0.535,-0.557L0.52,-0.498C0.494,-0.498 0.474,-0.492 0.458,-0.479C0.443,-0.466 0.433,-0.445 0.429,-0.417C0.437,-0.403 0.443,-0.387 0.447,-0.369C0.451,-0.352 0.452,-0.333 0.45,-0.312C0.447,-0.277 0.436,-0.247 0.419,-0.22C0.402,-0.193 0.379,-0.172 0.352,-0.157C0.325,-0.142 0.295,-0.135 0.263,-0.135C0.246,-0.135 0.229,-0.137 0.214,-0.142C0.198,-0.147 0.184,-0.153 0.172,-0.162C0.158,-0.16 0.145,-0.154 0.134,-0.142C0.123,-0.132 0.116,-0.117 0.114,-0.099C0.112,-0.082 0.116,-0.069 0.127,-0.058C0.138,-0.047 0.16,-0.042 0.193,-0.042L0.371,-0.042C0.408,-0.042 0.436,-0.032 0.456,-0.013C0.476,0.006 0.485,0.031 0.483,0.063C0.481,0.093 0.468,0.122 0.445,0.149C0.422,0.177 0.391,0.2 0.352,0.217C0.313,0.234 0.268,0.243 0.218,0.243ZM0.217,0.197C0.256,0.197 0.291,0.191 0.323,0.178C0.354,0.166 0.38,0.15 0.399,0.13C0.418,0.11 0.428,0.089 0.43,0.066C0.431,0.048 0.427,0.033 0.417,0.02C0.407,0.008 0.39,0.001 0.368,0.002L0.181,0.002C0.15,0.001 0.125,0.011 0.106,0.029C0.086,0.047 0.075,0.069 0.074,0.095C0.073,0.123 0.084,0.147 0.107,0.167C0.13,0.187 0.167,0.197 0.217,0.197ZM0.27,-0.178C0.294,-0.178 0.315,-0.183 0.334,-0.195C0.352,-0.207 0.367,-0.223 0.379,-0.244C0.391,-0.264 0.398,-0.287 0.401,-0.312C0.404,-0.35 0.397,-0.381 0.378,-0.406C0.359,-0.43 0.331,-0.442 0.296,-0.442C0.26,-0.442 0.231,-0.43 0.207,-0.406C0.184,-0.382 0.171,-0.351 0.167,-0.312C0.163,-0.274 0.17,-0.242 0.189,-0.216C0.208,-0.19 0.235,-0.178 0.27,-0.178Z" style="fill:rgb(0,109,255);fill-rule:nonzero;"/>
            </g>
            <g transform="matrix(12.1,0,0,12.1,507.609,414.594)">
                <path d="M0.238,0.009C0.205,0.009 0.178,0.002 0.155,-0.012C0.133,-0.026 0.116,-0.046 0.106,-0.073C0.096,-0.1 0.093,-0.134 0.096,-0.174L0.124,-0.475L0.176,-0.475L0.149,-0.177C0.144,-0.132 0.15,-0.099 0.167,-0.076C0.184,-0.053 0.212,-0.042 0.25,-0.042C0.28,-0.042 0.306,-0.051 0.329,-0.069C0.352,-0.087 0.37,-0.111 0.384,-0.141C0.398,-0.171 0.407,-0.205 0.41,-0.241L0.433,-0.475L0.485,-0.475L0.44,-0L0.388,-0L0.398,-0.1C0.38,-0.066 0.357,-0.039 0.33,-0.02C0.303,-0.001 0.272,0.009 0.238,0.009Z" style="fill:rgb(0,109,255);fill-rule:nonzero;"/>
            </g>
            <g transform="matrix(12.1,0,0,12.1,514.083,414.594)">
                <path d="M0.095,-0L0.159,-0.679L0.211,-0.679L0.182,-0.381C0.198,-0.413 0.22,-0.438 0.246,-0.457C0.273,-0.476 0.303,-0.485 0.338,-0.485C0.371,-0.485 0.398,-0.477 0.421,-0.461C0.444,-0.445 0.461,-0.421 0.471,-0.391C0.482,-0.36 0.486,-0.323 0.482,-0.28L0.455,-0L0.405,-0L0.431,-0.28C0.436,-0.33 0.428,-0.369 0.408,-0.395C0.389,-0.422 0.361,-0.435 0.325,-0.435C0.294,-0.435 0.267,-0.426 0.245,-0.408C0.222,-0.39 0.204,-0.365 0.192,-0.332C0.179,-0.3 0.17,-0.262 0.167,-0.218L0.147,-0L0.095,-0Z" style="fill:rgb(0,109,255);fill-rule:nonzero;"/>
            </g>
            <g transform="matrix(12.1,0,0,12.1,520.556,414.594)">
                <path d="M0.153,0.081L0.153,-0.7L-0.019,-0.7L-0.019,-0.65L0.095,-0.65L0.095,0.031L-0.019,0.031L-0.019,0.081L0.153,0.081Z" style="fill:rgb(0,109,255);fill-rule:nonzero;"/>
            </g>
            <g transform="matrix(12.1,0,0,12.1,526.552,414.594)">
                <path d="M0.431,-0L0.431,-0.283C0.431,-0.322 0.421,-0.351 0.403,-0.371C0.384,-0.391 0.359,-0.401 0.328,-0.401C0.303,-0.401 0.281,-0.394 0.262,-0.38C0.243,-0.366 0.228,-0.346 0.218,-0.319C0.207,-0.292 0.202,-0.259 0.202,-0.22L0.166,-0.22C0.166,-0.281 0.173,-0.332 0.189,-0.373C0.204,-0.413 0.226,-0.444 0.254,-0.465C0.283,-0.486 0.317,-0.497 0.356,-0.497C0.395,-0.497 0.428,-0.488 0.455,-0.47C0.482,-0.452 0.502,-0.428 0.516,-0.396C0.53,-0.364 0.537,-0.326 0.537,-0.283L0.537,-0L0.431,-0ZM0.096,-0L0.096,-0.483L0.188,-0.483L0.202,-0.383L0.202,-0L0.096,-0Z" style="fill:rgb(0,109,255);fill-rule:nonzero;"/>
            </g>
            <g transform="matrix(12.1,0,0,12.1,534.024,414.594)">
                <path d="M0.281,0.014C0.237,0.013 0.198,0.004 0.163,-0.015C0.128,-0.034 0.1,-0.062 0.079,-0.1C0.058,-0.138 0.048,-0.185 0.048,-0.241C0.048,-0.298 0.058,-0.346 0.079,-0.384C0.1,-0.421 0.128,-0.449 0.163,-0.468C0.198,-0.487 0.237,-0.497 0.281,-0.497C0.324,-0.497 0.364,-0.487 0.399,-0.468C0.434,-0.449 0.461,-0.421 0.482,-0.384C0.502,-0.346 0.513,-0.298 0.513,-0.241C0.513,-0.185 0.502,-0.138 0.482,-0.1C0.461,-0.062 0.434,-0.034 0.399,-0.015C0.364,0.004 0.324,0.013 0.281,0.014ZM0.278,-0.08C0.303,-0.08 0.326,-0.086 0.345,-0.098C0.364,-0.111 0.379,-0.129 0.39,-0.153C0.4,-0.177 0.406,-0.206 0.406,-0.241C0.406,-0.294 0.395,-0.335 0.374,-0.363C0.353,-0.391 0.323,-0.405 0.284,-0.405C0.259,-0.405 0.236,-0.398 0.217,-0.386C0.198,-0.373 0.183,-0.355 0.172,-0.331C0.161,-0.307 0.156,-0.277 0.156,-0.241C0.156,-0.189 0.167,-0.149 0.188,-0.121C0.21,-0.093 0.239,-0.08 0.278,-0.08Z" style="fill:rgb(0,109,255);fill-rule:nonzero;"/>
            </g>
            <g transform="matrix(12.1,0,0,12.1,540.806,414.594)">
                <path d="M0.419,-0.485L0.526,-0.485L0.526,-0L0.419,-0L0.419,-0.485ZM0.084,-0.485L0.191,-0.485L0.191,-0.187C0.191,-0.153 0.199,-0.127 0.216,-0.11C0.233,-0.093 0.256,-0.084 0.286,-0.084C0.311,-0.084 0.334,-0.091 0.354,-0.104C0.374,-0.117 0.39,-0.136 0.402,-0.161C0.413,-0.186 0.419,-0.217 0.419,-0.253L0.45,-0.253C0.45,-0.195 0.442,-0.147 0.427,-0.108C0.412,-0.069 0.39,-0.04 0.363,-0.02C0.336,-0.001 0.304,0.009 0.268,0.009C0.233,0.009 0.202,0.003 0.174,-0.01C0.146,-0.023 0.124,-0.043 0.108,-0.07C0.092,-0.097 0.084,-0.133 0.084,-0.177L0.084,-0.485Z" style="fill:rgb(0,109,255);fill-rule:nonzero;"/>
            </g>
            <g transform="matrix(12.1,0,0,12.1,548.32,414.594)">
                <path d="M0.431,-0L0.431,-0.283C0.431,-0.322 0.421,-0.351 0.403,-0.371C0.384,-0.391 0.359,-0.401 0.328,-0.401C0.303,-0.401 0.281,-0.394 0.262,-0.38C0.243,-0.366 0.228,-0.346 0.218,-0.319C0.207,-0.292 0.202,-0.259 0.202,-0.22L0.166,-0.22C0.166,-0.281 0.173,-0.332 0.189,-0.373C0.204,-0.413 0.226,-0.444 0.254,-0.465C0.283,-0.486 0.317,-0.497 0.356,-0.497C0.395,-0.497 0.428,-0.488 0.455,-0.47C0.482,-0.452 0.502,-0.428 0.516,-0.396C0.53,-0.364 0.537,-0.326 0.537,-0.283L0.537,-0L0.431,-0ZM0.096,-0L0.096,-0.483L0.188,-0.483L0.202,-0.383L0.202,-0L0.096,-0Z" style="fill:rgb(0,109,255);fill-rule:nonzero;"/>
            </g>
            <g transform="matrix(11.8,0,0,11.8,480.657,431.594)">
                <path d="M0.314,0.011C0.265,0.011 0.22,-0.001 0.181,-0.024C0.142,-0.047 0.111,-0.083 0.087,-0.13C0.065,-0.177 0.053,-0.236 0.053,-0.307C0.053,-0.379 0.065,-0.439 0.087,-0.486C0.111,-0.534 0.142,-0.569 0.181,-0.593C0.22,-0.616 0.265,-0.627 0.314,-0.627C0.363,-0.627 0.407,-0.616 0.447,-0.592C0.486,-0.569 0.517,-0.533 0.54,-0.486C0.563,-0.438 0.575,-0.379 0.575,-0.307C0.575,-0.235 0.563,-0.176 0.54,-0.129C0.517,-0.082 0.486,-0.047 0.447,-0.024C0.407,-0.001 0.363,0.011 0.314,0.011ZM0.314,-0.043C0.376,-0.043 0.425,-0.066 0.461,-0.11C0.496,-0.155 0.514,-0.221 0.514,-0.308C0.514,-0.394 0.496,-0.46 0.461,-0.506C0.425,-0.552 0.376,-0.576 0.314,-0.576C0.252,-0.576 0.203,-0.552 0.168,-0.506C0.132,-0.46 0.114,-0.393 0.114,-0.307C0.114,-0.22 0.132,-0.154 0.168,-0.11C0.203,-0.066 0.252,-0.043 0.314,-0.043Z" style="fill:rgb(0,109,255);fill-rule:nonzero;"/>
            </g>
            <g transform="matrix(11.8,0,0,11.8,488.055,431.594)">
                <path d="M0.449,-0L0.449,-0.28C0.449,-0.33 0.436,-0.368 0.412,-0.395C0.388,-0.422 0.355,-0.435 0.313,-0.435C0.281,-0.435 0.255,-0.427 0.232,-0.409C0.21,-0.393 0.193,-0.369 0.181,-0.338C0.169,-0.307 0.163,-0.272 0.163,-0.231L0.138,-0.231C0.138,-0.282 0.145,-0.328 0.159,-0.366C0.173,-0.404 0.194,-0.433 0.222,-0.454C0.25,-0.475 0.284,-0.486 0.326,-0.486C0.362,-0.486 0.394,-0.477 0.421,-0.461C0.448,-0.445 0.468,-0.421 0.483,-0.39C0.498,-0.359 0.505,-0.323 0.505,-0.28L0.505,-0L0.449,-0ZM0.105,-0L0.105,-0.474L0.154,-0.474L0.163,-0.358L0.163,-0L0.105,-0Z" style="fill:rgb(0,109,255);fill-rule:nonzero;"/>
            </g>
            <g transform="matrix(11.8,0,0,11.8,495.058,431.594)">
                <path d="M0.264,0.011C0.222,0.011 0.186,0 0.154,-0.021C0.123,-0.042 0.098,-0.071 0.08,-0.108C0.062,-0.145 0.053,-0.188 0.053,-0.235C0.053,-0.288 0.062,-0.332 0.08,-0.37C0.098,-0.407 0.122,-0.436 0.154,-0.456C0.185,-0.475 0.222,-0.486 0.264,-0.486C0.299,-0.486 0.328,-0.478 0.353,-0.464C0.377,-0.45 0.397,-0.431 0.412,-0.406C0.427,-0.382 0.438,-0.355 0.444,-0.324C0.45,-0.293 0.452,-0.262 0.451,-0.229L0.101,-0.229L0.101,-0.269L0.416,-0.269L0.393,-0.254C0.394,-0.276 0.392,-0.297 0.389,-0.319C0.385,-0.34 0.379,-0.36 0.369,-0.378C0.36,-0.396 0.346,-0.41 0.33,-0.422C0.313,-0.433 0.291,-0.438 0.264,-0.438C0.23,-0.438 0.202,-0.429 0.179,-0.412C0.156,-0.394 0.139,-0.372 0.128,-0.344C0.117,-0.316 0.112,-0.286 0.112,-0.255L0.112,-0.23C0.112,-0.194 0.117,-0.161 0.128,-0.132C0.139,-0.103 0.156,-0.08 0.179,-0.063C0.201,-0.046 0.23,-0.038 0.264,-0.038C0.299,-0.038 0.327,-0.046 0.349,-0.063C0.371,-0.08 0.385,-0.106 0.389,-0.139L0.451,-0.139C0.446,-0.107 0.435,-0.08 0.418,-0.058C0.401,-0.036 0.379,-0.019 0.353,-0.007C0.326,0.005 0.297,0.011 0.264,0.011Z" style="fill:rgb(0,109,255);fill-rule:nonzero;"/>
            </g>
            <g transform="matrix(11.8,0,0,11.8,503.726,431.594)">
                <path d="M0.021,-0.474L0.081,-0.474L0.212,-0.06L0.203,-0.06L0.332,-0.453L0.376,-0.453L0.503,-0.059L0.496,-0.059L0.626,-0.474L0.684,-0.474L0.529,-0L0.472,-0L0.348,-0.369L0.357,-0.369L0.233,-0L0.178,-0L0.021,-0.474Z" style="fill:rgb(0,109,255);fill-rule:nonzero;"/>
            </g>
            <g transform="matrix(11.8,0,0,11.8,512.074,431.594)">
                <path d="M0.449,-0L0.449,-0.28C0.449,-0.33 0.436,-0.368 0.412,-0.395C0.388,-0.422 0.355,-0.435 0.313,-0.435C0.281,-0.435 0.255,-0.427 0.232,-0.409C0.21,-0.393 0.193,-0.369 0.181,-0.338C0.169,-0.307 0.163,-0.272 0.163,-0.231L0.138,-0.231C0.138,-0.282 0.145,-0.328 0.159,-0.366C0.173,-0.404 0.194,-0.433 0.222,-0.454C0.25,-0.475 0.284,-0.486 0.326,-0.486C0.362,-0.486 0.394,-0.477 0.421,-0.461C0.448,-0.445 0.468,-0.421 0.483,-0.39C0.498,-0.359 0.505,-0.323 0.505,-0.28L0.505,-0L0.449,-0ZM0.105,-0L0.105,-0.68L0.163,-0.68L0.163,-0L0.105,-0Z" style="fill:rgb(0,109,255);fill-rule:nonzero;"/>
            </g>
            <g transform="matrix(11.8,0,0,11.8,519.077,431.594)">
                <path d="M0.269,0.011C0.227,0.011 0.189,0.001 0.157,-0.018C0.125,-0.037 0.099,-0.065 0.081,-0.102C0.062,-0.139 0.053,-0.184 0.053,-0.237C0.053,-0.291 0.062,-0.336 0.081,-0.373C0.099,-0.41 0.125,-0.438 0.157,-0.457C0.189,-0.476 0.227,-0.486 0.269,-0.486C0.311,-0.486 0.349,-0.476 0.381,-0.457C0.413,-0.438 0.439,-0.41 0.457,-0.373C0.475,-0.336 0.485,-0.291 0.485,-0.237C0.485,-0.184 0.475,-0.139 0.457,-0.102C0.439,-0.065 0.413,-0.037 0.381,-0.018C0.349,0.001 0.311,0.011 0.269,0.011ZM0.268,-0.04C0.303,-0.04 0.332,-0.048 0.356,-0.064C0.379,-0.081 0.396,-0.104 0.408,-0.134C0.419,-0.163 0.425,-0.198 0.425,-0.237C0.425,-0.297 0.412,-0.345 0.387,-0.382C0.361,-0.418 0.322,-0.436 0.27,-0.436C0.235,-0.436 0.206,-0.428 0.183,-0.411C0.16,-0.395 0.142,-0.372 0.131,-0.342C0.119,-0.312 0.114,-0.277 0.114,-0.237C0.114,-0.178 0.126,-0.13 0.152,-0.094C0.177,-0.058 0.216,-0.04 0.268,-0.04Z" style="fill:rgb(0,109,255);fill-rule:nonzero;"/>
            </g>
            <g transform="matrix(11.8,0,0,11.8,528.116,431.594)">
                <path d="M0.13,-0L0.13,-0.556C0.13,-0.586 0.136,-0.611 0.147,-0.63C0.158,-0.649 0.174,-0.664 0.194,-0.673C0.213,-0.682 0.235,-0.687 0.26,-0.687C0.272,-0.687 0.285,-0.686 0.298,-0.684C0.31,-0.682 0.323,-0.679 0.336,-0.675L0.325,-0.627C0.314,-0.631 0.303,-0.635 0.293,-0.637C0.283,-0.639 0.273,-0.64 0.264,-0.64C0.252,-0.64 0.241,-0.638 0.229,-0.633C0.217,-0.629 0.207,-0.621 0.2,-0.609C0.192,-0.597 0.188,-0.579 0.188,-0.556L0.188,-0L0.13,-0ZM0.049,-0.433L0.049,-0.474L0.292,-0.474L0.292,-0.433L0.049,-0.433Z" style="fill:rgb(0,109,255);fill-rule:nonzero;"/>
            </g>
            <g transform="matrix(11.8,0,0,11.8,532.01,431.594)">
                <path d="M0.269,0.011C0.227,0.011 0.189,0.001 0.157,-0.018C0.125,-0.037 0.099,-0.065 0.081,-0.102C0.062,-0.139 0.053,-0.184 0.053,-0.237C0.053,-0.291 0.062,-0.336 0.081,-0.373C0.099,-0.41 0.125,-0.438 0.157,-0.457C0.189,-0.476 0.227,-0.486 0.269,-0.486C0.311,-0.486 0.349,-0.476 0.381,-0.457C0.413,-0.438 0.439,-0.41 0.457,-0.373C0.475,-0.336 0.485,-0.291 0.485,-0.237C0.485,-0.184 0.475,-0.139 0.457,-0.102C0.439,-0.065 0.413,-0.037 0.381,-0.018C0.349,0.001 0.311,0.011 0.269,0.011ZM0.268,-0.04C0.303,-0.04 0.332,-0.048 0.356,-0.064C0.379,-0.081 0.396,-0.104 0.408,-0.134C0.419,-0.163 0.425,-0.198 0.425,-0.237C0.425,-0.297 0.412,-0.345 0.387,-0.382C0.361,-0.418 0.322,-0.436 0.27,-0.436C0.235,-0.436 0.206,-0.428 0.183,-0.411C0.16,-0.395 0.142,-0.372 0.131,-0.342C0.119,-0.312 0.114,-0.277 0.114,-0.237C0.114,-0.178 0.126,-0.13 0.152,-0.094C0.177,-0.058 0.216,-0.04 0.268,-0.04Z" style="fill:rgb(0,109,255);fill-rule:nonzero;"/>
            </g>
            <g transform="matrix(11.8,0,0,11.8,538.341,431.594)">
                <path d="M0.105,-0L0.105,-0.475L0.163,-0.475L0.163,-0L0.105,-0ZM0.141,-0.218C0.141,-0.277 0.147,-0.326 0.157,-0.366C0.167,-0.405 0.183,-0.434 0.205,-0.454C0.227,-0.474 0.254,-0.484 0.288,-0.484C0.3,-0.484 0.31,-0.483 0.32,-0.481C0.33,-0.479 0.34,-0.477 0.35,-0.473L0.344,-0.417C0.334,-0.42 0.323,-0.423 0.312,-0.426C0.3,-0.428 0.29,-0.43 0.281,-0.43C0.251,-0.43 0.228,-0.421 0.211,-0.403C0.194,-0.385 0.181,-0.36 0.174,-0.328C0.167,-0.296 0.163,-0.259 0.163,-0.218L0.141,-0.218Z" style="fill:rgb(0,109,255);fill-rule:nonzero;"/>
            </g>
            <g transform="matrix(11.8,0,0,11.8,542.424,431.594)">
                <path d="M0.264,0.011C0.222,0.011 0.186,0 0.154,-0.021C0.123,-0.042 0.098,-0.071 0.08,-0.108C0.062,-0.145 0.053,-0.188 0.053,-0.235C0.053,-0.288 0.062,-0.332 0.08,-0.37C0.098,-0.407 0.122,-0.436 0.154,-0.456C0.185,-0.475 0.222,-0.486 0.264,-0.486C0.299,-0.486 0.328,-0.478 0.353,-0.464C0.377,-0.45 0.397,-0.431 0.412,-0.406C0.427,-0.382 0.438,-0.355 0.444,-0.324C0.45,-0.293 0.452,-0.262 0.451,-0.229L0.101,-0.229L0.101,-0.269L0.416,-0.269L0.393,-0.254C0.394,-0.276 0.392,-0.297 0.389,-0.319C0.385,-0.34 0.379,-0.36 0.369,-0.378C0.36,-0.396 0.346,-0.41 0.33,-0.422C0.313,-0.433 0.291,-0.438 0.264,-0.438C0.23,-0.438 0.202,-0.429 0.179,-0.412C0.156,-0.394 0.139,-0.372 0.128,-0.344C0.117,-0.316 0.112,-0.286 0.112,-0.255L0.112,-0.23C0.112,-0.194 0.117,-0.161 0.128,-0.132C0.139,-0.103 0.156,-0.08 0.179,-0.063C0.201,-0.046 0.23,-0.038 0.264,-0.038C0.299,-0.038 0.327,-0.046 0.349,-0.063C0.371,-0.08 0.385,-0.106 0.389,-0.139L0.451,-0.139C0.446,-0.107 0.435,-0.08 0.418,-0.058C0.401,-0.036 0.379,-0.019 0.353,-0.007C0.326,0.005 0.297,0.011 0.264,0.011Z" style="fill:rgb(0,109,255);fill-rule:nonzero;"/>
            </g>
            <g transform="matrix(11.8,0,0,11.8,548.383,431.594)">
                <path d="M0.244,0.011C0.219,0.011 0.197,0.006 0.178,-0.004C0.159,-0.013 0.144,-0.028 0.133,-0.047C0.122,-0.066 0.117,-0.089 0.117,-0.117L0.117,-0.61L0.173,-0.61L0.173,-0.118C0.173,-0.064 0.198,-0.037 0.248,-0.037C0.263,-0.037 0.277,-0.039 0.29,-0.042C0.303,-0.045 0.318,-0.05 0.335,-0.056L0.343,-0.014C0.327,-0.006 0.31,-0 0.294,0.004C0.278,0.009 0.261,0.011 0.244,0.011ZM0.035,-0.433L0.035,-0.474L0.334,-0.474L0.334,-0.433L0.035,-0.433Z" style="fill:rgb(0,109,255);fill-rule:nonzero;"/>
            </g>
            <g transform="matrix(11.8,0,0,11.8,552.707,431.594)">
                <path d="M0.264,0.011C0.222,0.011 0.186,0 0.154,-0.021C0.123,-0.042 0.098,-0.071 0.08,-0.108C0.062,-0.145 0.053,-0.188 0.053,-0.235C0.053,-0.288 0.062,-0.332 0.08,-0.37C0.098,-0.407 0.122,-0.436 0.154,-0.456C0.185,-0.475 0.222,-0.486 0.264,-0.486C0.299,-0.486 0.328,-0.478 0.353,-0.464C0.377,-0.45 0.397,-0.431 0.412,-0.406C0.427,-0.382 0.438,-0.355 0.444,-0.324C0.45,-0.293 0.452,-0.262 0.451,-0.229L0.101,-0.229L0.101,-0.269L0.416,-0.269L0.393,-0.254C0.394,-0.276 0.392,-0.297 0.389,-0.319C0.385,-0.34 0.379,-0.36 0.369,-0.378C0.36,-0.396 0.346,-0.41 0.33,-0.422C0.313,-0.433 0.291,-0.438 0.264,-0.438C0.23,-0.438 0.202,-0.429 0.179,-0.412C0.156,-0.394 0.139,-0.372 0.128,-0.344C0.117,-0.316 0.112,-0.286 0.112,-0.255L0.112,-0.23C0.112,-0.194 0.117,-0.161 0.128,-0.132C0.139,-0.103 0.156,-0.08 0.179,-0.063C0.201,-0.046 0.23,-0.038 0.264,-0.038C0.299,-0.038 0.327,-0.046 0.349,-0.063C0.371,-0.08 0.385,-0.106 0.389,-0.139L0.451,-0.139C0.446,-0.107 0.435,-0.08 0.418,-0.058C0.401,-0.036 0.379,-0.019 0.353,-0.007C0.326,0.005 0.297,0.011 0.264,0.011Z" style="fill:rgb(0,109,255);fill-rule:nonzero;"/>
            </g>
            <g transform="matrix(11.8,0,0,11.8,558.666,431.594)">
                <rect x="0.105" y="-0.68" width="0.058" height="0.68" style="fill:rgb(0,109,255);fill-rule:nonzero;"/>
            </g>
            <g transform="matrix(11.8,0,0,11.8,561.829,431.594)">
                <rect x="0.105" y="-0.68" width="0.058" height="0.68" style="fill:rgb(0,109,255);fill-rule:nonzero;"/>
            </g>
            <g transform="matrix(11.8,0,0,11.8,564.991,431.594)">
                <path d="M0.273,0.011C0.227,0.011 0.189,0.004 0.159,-0.009C0.129,-0.022 0.107,-0.04 0.092,-0.063C0.077,-0.086 0.068,-0.111 0.067,-0.139L0.125,-0.139C0.127,-0.105 0.141,-0.08 0.166,-0.063C0.191,-0.046 0.225,-0.037 0.269,-0.037C0.292,-0.037 0.313,-0.041 0.332,-0.048C0.351,-0.056 0.367,-0.066 0.379,-0.079C0.391,-0.092 0.397,-0.107 0.397,-0.124C0.397,-0.145 0.389,-0.162 0.373,-0.174C0.357,-0.186 0.333,-0.196 0.299,-0.205L0.212,-0.231C0.17,-0.243 0.139,-0.26 0.117,-0.282C0.095,-0.304 0.084,-0.331 0.084,-0.362C0.084,-0.399 0.1,-0.429 0.132,-0.452C0.164,-0.474 0.206,-0.486 0.259,-0.486C0.315,-0.486 0.359,-0.474 0.391,-0.452C0.423,-0.43 0.439,-0.402 0.441,-0.369L0.381,-0.369C0.377,-0.392 0.365,-0.41 0.344,-0.421C0.324,-0.433 0.295,-0.439 0.259,-0.439C0.222,-0.439 0.194,-0.43 0.174,-0.413C0.154,-0.397 0.144,-0.379 0.144,-0.359C0.144,-0.321 0.177,-0.293 0.242,-0.276L0.327,-0.249C0.37,-0.237 0.402,-0.221 0.425,-0.201C0.447,-0.181 0.459,-0.155 0.459,-0.124C0.459,-0.101 0.451,-0.079 0.436,-0.059C0.421,-0.038 0.4,-0.021 0.373,-0.008C0.345,0.005 0.312,0.011 0.273,0.011Z" style="fill:rgb(0,109,255);fill-rule:nonzero;"/>
            </g>
            <g transform="matrix(11.8,0,0,11.8,573.888,431.594)">
                <path d="M0.264,0.011C0.222,0.011 0.186,0 0.154,-0.021C0.123,-0.042 0.098,-0.071 0.08,-0.108C0.062,-0.145 0.053,-0.188 0.053,-0.235C0.053,-0.288 0.062,-0.332 0.08,-0.37C0.098,-0.407 0.122,-0.436 0.154,-0.456C0.185,-0.475 0.222,-0.486 0.264,-0.486C0.299,-0.486 0.328,-0.478 0.353,-0.464C0.377,-0.45 0.397,-0.431 0.412,-0.406C0.427,-0.382 0.438,-0.355 0.444,-0.324C0.45,-0.293 0.452,-0.262 0.451,-0.229L0.101,-0.229L0.101,-0.269L0.416,-0.269L0.393,-0.254C0.394,-0.276 0.392,-0.297 0.389,-0.319C0.385,-0.34 0.379,-0.36 0.369,-0.378C0.36,-0.396 0.346,-0.41 0.33,-0.422C0.313,-0.433 0.291,-0.438 0.264,-0.438C0.23,-0.438 0.202,-0.429 0.179,-0.412C0.156,-0.394 0.139,-0.372 0.128,-0.344C0.117,-0.316 0.112,-0.286 0.112,-0.255L0.112,-0.23C0.112,-0.194 0.117,-0.161 0.128,-0.132C0.139,-0.103 0.156,-0.08 0.179,-0.063C0.201,-0.046 0.23,-0.038 0.264,-0.038C0.299,-0.038 0.327,-0.046 0.349,-0.063C0.371,-0.08 0.385,-0.106 0.389,-0.139L0.451,-0.139C0.446,-0.107 0.435,-0.08 0.418,-0.058C0.401,-0.036 0.379,-0.019 0.353,-0.007C0.326,0.005 0.297,0.011 0.264,0.011Z" style="fill:rgb(0,109,255);fill-rule:nonzero;"/>
            </g>
            <g transform="matrix(11.8,0,0,11.8,579.847,431.594)">
                <path d="M0.021,-0.474L0.086,-0.474L0.254,-0.05L0.242,-0.05L0.408,-0.474L0.474,-0.474L0.278,-0L0.217,-0L0.021,-0.474Z" style="fill:rgb(0,109,255);fill-rule:nonzero;"/>
            </g>
            <g transform="matrix(11.8,0,0,11.8,585.677,431.594)">
                <path d="M0.264,0.011C0.222,0.011 0.186,0 0.154,-0.021C0.123,-0.042 0.098,-0.071 0.08,-0.108C0.062,-0.145 0.053,-0.188 0.053,-0.235C0.053,-0.288 0.062,-0.332 0.08,-0.37C0.098,-0.407 0.122,-0.436 0.154,-0.456C0.185,-0.475 0.222,-0.486 0.264,-0.486C0.299,-0.486 0.328,-0.478 0.353,-0.464C0.377,-0.45 0.397,-0.431 0.412,-0.406C0.427,-0.382 0.438,-0.355 0.444,-0.324C0.45,-0.293 0.452,-0.262 0.451,-0.229L0.101,-0.229L0.101,-0.269L0.416,-0.269L0.393,-0.254C0.394,-0.276 0.392,-0.297 0.389,-0.319C0.385,-0.34 0.379,-0.36 0.369,-0.378C0.36,-0.396 0.346,-0.41 0.33,-0.422C0.313,-0.433 0.291,-0.438 0.264,-0.438C0.23,-0.438 0.202,-0.429 0.179,-0.412C0.156,-0.394 0.139,-0.372 0.128,-0.344C0.117,-0.316 0.112,-0.286 0.112,-0.255L0.112,-0.23C0.112,-0.194 0.117,-0.161 0.128,-0.132C0.139,-0.103 0.156,-0.08 0.179,-0.063C0.201,-0.046 0.23,-0.038 0.264,-0.038C0.299,-0.038 0.327,-0.046 0.349,-0.063C0.371,-0.08 0.385,-0.106 0.389,-0.139L0.451,-0.139C0.446,-0.107 0.435,-0.08 0.418,-0.058C0.401,-0.036 0.379,-0.019 0.353,-0.007C0.326,0.005 0.297,0.011 0.264,0.011Z" style="fill:rgb(0,109,255);fill-rule:nonzero;"/>
            </g>
            <g transform="matrix(11.8,0,0,11.8,591.636,431.594)">
                <path d="M0.449,-0L0.449,-0.28C0.449,-0.33 0.436,-0.368 0.412,-0.395C0.388,-0.422 0.355,-0.435 0.313,-0.435C0.281,-0.435 0.255,-0.427 0.232,-0.409C0.21,-0.393 0.193,-0.369 0.181,-0.338C0.169,-0.307 0.163,-0.272 0.163,-0.231L0.138,-0.231C0.138,-0.282 0.145,-0.328 0.159,-0.366C0.173,-0.404 0.194,-0.433 0.222,-0.454C0.25,-0.475 0.284,-0.486 0.326,-0.486C0.362,-0.486 0.394,-0.477 0.421,-0.461C0.448,-0.445 0.468,-0.421 0.483,-0.39C0.498,-0.359 0.505,-0.323 0.505,-0.28L0.505,-0L0.449,-0ZM0.105,-0L0.105,-0.474L0.154,-0.474L0.163,-0.358L0.163,-0L0.105,-0Z" style="fill:rgb(0,109,255);fill-rule:nonzero;"/>
            </g>
            <g transform="matrix(11.8,0,0,11.8,598.639,431.594)">
                <path d="M0.244,0.011C0.219,0.011 0.197,0.006 0.178,-0.004C0.159,-0.013 0.144,-0.028 0.133,-0.047C0.122,-0.066 0.117,-0.089 0.117,-0.117L0.117,-0.61L0.173,-0.61L0.173,-0.118C0.173,-0.064 0.198,-0.037 0.248,-0.037C0.263,-0.037 0.277,-0.039 0.29,-0.042C0.303,-0.045 0.318,-0.05 0.335,-0.056L0.343,-0.014C0.327,-0.006 0.31,-0 0.294,0.004C0.278,0.009 0.261,0.011 0.244,0.011ZM0.035,-0.433L0.035,-0.474L0.334,-0.474L0.334,-0.433L0.035,-0.433Z" style="fill:rgb(0,109,255);fill-rule:nonzero;"/>
            </g>
            <g transform="matrix(11.8,0,0,11.8,602.964,431.594)">
                <path d="M0.273,0.011C0.227,0.011 0.189,0.004 0.159,-0.009C0.129,-0.022 0.107,-0.04 0.092,-0.063C0.077,-0.086 0.068,-0.111 0.067,-0.139L0.125,-0.139C0.127,-0.105 0.141,-0.08 0.166,-0.063C0.191,-0.046 0.225,-0.037 0.269,-0.037C0.292,-0.037 0.313,-0.041 0.332,-0.048C0.351,-0.056 0.367,-0.066 0.379,-0.079C0.391,-0.092 0.397,-0.107 0.397,-0.124C0.397,-0.145 0.389,-0.162 0.373,-0.174C0.357,-0.186 0.333,-0.196 0.299,-0.205L0.212,-0.231C0.17,-0.243 0.139,-0.26 0.117,-0.282C0.095,-0.304 0.084,-0.331 0.084,-0.362C0.084,-0.399 0.1,-0.429 0.132,-0.452C0.164,-0.474 0.206,-0.486 0.259,-0.486C0.315,-0.486 0.359,-0.474 0.391,-0.452C0.423,-0.43 0.439,-0.402 0.441,-0.369L0.381,-0.369C0.377,-0.392 0.365,-0.41 0.344,-0.421C0.324,-0.433 0.295,-0.439 0.259,-0.439C0.222,-0.439 0.194,-0.43 0.174,-0.413C0.154,-0.397 0.144,-0.379 0.144,-0.359C0.144,-0.321 0.177,-0.293 0.242,-0.276L0.327,-0.249C0.37,-0.237 0.402,-0.221 0.425,-0.201C0.447,-0.181 0.459,-0.155 0.459,-0.124C0.459,-0.101 0.451,-0.079 0.436,-0.059C0.421,-0.038 0.4,-0.021 0.373,-0.008C0.345,0.005 0.312,0.011 0.273,0.011Z" style="fill:rgb(0,109,255);fill-rule:nonzero;"/>
            </g>
        </g>
    </g>
    <defs>
        <linearGradient id="_Linear1" x1="0" y1="0" x2="1" y2="0" gradientUnits="userSpaceOnUse" gradientTransform="matrix(127.728,0,0,34.704,506.003,339.214)"><stop offset="0" style="stop-color:rgb(0,179,255);stop-opacity:1"/><stop offset="1" style="stop-color:rgb(0,77,255);stop-opacity:1"/></linearGradient>
        <linearGradient id="_Linear2" x1="0" y1="0" x2="1" y2="0" gradientUnits="userSpaceOnUse" gradientTransform="matrix(127.728,0,0,34.704,506.003,339.214)"><stop offset="0" style="stop-color:rgb(0,179,255);stop-opacity:1"/><stop offset="1" style="stop-color:rgb(0,77,255);stop-opacity:1"/></linearGradient>
        <linearGradient id="_Linear3" x1="0" y1="0" x2="1" y2="0" gradientUnits="userSpaceOnUse" gradientTransform="matrix(127.728,0,0,34.704,506.003,339.214)"><stop offset="0" style="stop-color:rgb(0,179,255);stop-opacity:1"/><stop offset="1" style="stop-color:rgb(0,77,255);stop-opacity:1"/></linearGradient>
        <linearGradient id="_Linear4" x1="0" y1="0" x2="1" y2="0" gradientUnits="userSpaceOnUse" gradientTransform="matrix(127.728,0,0,34.704,506.003,339.214)"><stop offset="0" style="stop-color:rgb(0,179,255);stop-opacity:1"/><stop offset="1" style="stop-color:rgb(0,77,255);stop-opacity:1"/></linearGradient>
        <linearGradient id="_Linear5" x1="0" y1="0" x2="1" y2="0" gradientUnits="userSpaceOnUse" gradientTransform="matrix(127.728,0,0,34.704,506.003,339.214)"><stop offset="0" style="stop-color:rgb(0,179,255);stop-opacity:1"/><stop offset="1" style="stop-color:rgb(0,77,255);stop-opacity:1"/></linearGradient>
    </defs>
</svg>
