<?xml version="1.0" encoding="UTF-8" standalone="no"?>
<!DOCTYPE svg PUBLIC "-//W3C//DTD SVG 1.1//EN" "http://www.w3.org/Graphics/SVG/1.1/DTD/svg11.dtd">
<svg width="100%" height="100%" viewBox="0 0 128 35" version="1.1" xmlns="http://www.w3.org/2000/svg" xmlns:xlink="http://www.w3.org/1999/xlink" xml:space="preserve" xmlns:serif="http://www.serif.com/" style="fill-rule:evenodd;clip-rule:evenodd;stroke-linejoin:round;stroke-miterlimit:2;">
    <g transform="matrix(1,0,0,1,-480.657,-363.76)">
        <g transform="matrix(1,0,0,1,-25.3469,41.8979)">
            <path d="M527.555,322.438C527.971,322.438 528.315,322.582 528.587,322.87C528.859,323.158 528.995,323.51 528.995,323.926L528.995,345.526C528.995,345.91 528.851,346.246 528.563,346.534C528.275,346.822 527.939,346.966 527.555,346.966C527.139,346.966 526.795,346.822 526.523,346.534C526.251,346.246 526.115,345.91 526.115,345.526L526.115,339.814L526.931,339.43C526.931,340.326 526.683,341.238 526.187,342.166C525.691,343.094 525.011,343.958 524.147,344.758C523.283,345.558 522.267,346.206 521.099,346.702C519.931,347.198 518.675,347.446 517.331,347.446C515.155,347.446 513.211,346.886 511.499,345.766C509.787,344.646 508.443,343.11 507.467,341.158C506.491,339.206 506.003,337.014 506.003,334.582C506.003,332.086 506.499,329.886 507.491,327.982C508.483,326.078 509.827,324.582 511.523,323.494C513.219,322.406 515.139,321.862 517.283,321.862C518.659,321.862 519.947,322.102 521.147,322.582C522.347,323.062 523.395,323.718 524.291,324.55C525.187,325.382 525.883,326.334 526.379,327.406C526.875,328.478 527.123,329.59 527.123,330.742L526.115,330.022L526.115,323.926C526.115,323.51 526.251,323.158 526.523,322.87C526.795,322.582 527.139,322.438 527.555,322.438ZM517.571,344.758C519.267,344.758 520.771,344.318 522.083,343.438C523.395,342.558 524.427,341.342 525.179,339.79C525.931,338.238 526.307,336.502 526.307,334.582C526.307,332.694 525.931,330.998 525.179,329.494C524.427,327.99 523.395,326.79 522.083,325.894C520.771,324.998 519.267,324.55 517.571,324.55C515.907,324.55 514.411,324.982 513.083,325.846C511.755,326.71 510.715,327.894 509.963,329.398C509.211,330.902 508.835,332.63 508.835,334.582C508.835,336.502 509.211,338.238 509.963,339.79C510.715,341.342 511.747,342.558 513.059,343.438C514.371,344.318 515.875,344.758 517.571,344.758Z" style="fill:url(#_Linear1);fill-rule:nonzero;"/>
            <path d="M554.387,322.582C554.803,322.582 555.147,322.726 555.419,323.014C555.691,323.302 555.827,323.638 555.827,324.022L555.827,337.558C555.827,340.726 554.931,343.142 553.139,344.806C551.347,346.47 548.931,347.302 545.891,347.302C542.883,347.302 540.491,346.47 538.715,344.806C536.939,343.142 536.051,340.726 536.051,337.558L536.051,324.022C536.051,323.638 536.187,323.302 536.459,323.014C536.731,322.726 537.075,322.582 537.491,322.582C537.907,322.582 538.251,322.726 538.523,323.014C538.795,323.302 538.931,323.638 538.931,324.022L538.931,337.558C538.931,339.862 539.547,341.614 540.779,342.814C542.011,344.014 543.715,344.614 545.891,344.614C548.099,344.614 549.827,344.014 551.075,342.814C552.323,341.614 552.947,339.862 552.947,337.558L552.947,324.022C552.947,323.638 553.075,323.302 553.331,323.014C553.587,322.726 553.939,322.582 554.387,322.582Z" style="fill:url(#_Linear2);fill-rule:nonzero;"/>
            <path d="M573.107,321.862C574.547,321.862 575.875,322.11 577.091,322.606C578.307,323.102 579.371,323.742 580.283,324.526C581.195,325.31 581.907,326.142 582.419,327.022C582.931,327.902 583.187,328.742 583.187,329.542L582.371,328.39L582.371,323.926C582.371,323.51 582.507,323.158 582.779,322.87C583.051,322.582 583.395,322.438 583.811,322.438C584.259,322.438 584.611,322.582 584.867,322.87C585.123,323.158 585.251,323.51 585.251,323.926L585.251,344.71C585.251,347.27 584.723,349.43 583.667,351.19C582.611,352.95 581.179,354.286 579.371,355.198C577.563,356.11 575.507,356.566 573.203,356.566C572.083,356.566 570.907,356.422 569.675,356.134C568.443,355.846 567.387,355.478 566.507,355.03C565.627,354.582 565.139,354.118 565.043,353.638C564.787,353.35 564.667,353.07 564.683,352.798C564.699,352.526 564.835,352.294 565.091,352.102C565.411,351.878 565.747,351.854 566.099,352.03C566.451,352.206 566.979,352.438 567.683,352.726C568.003,352.822 568.435,352.966 568.979,353.158C569.523,353.35 570.171,353.518 570.923,353.662C571.675,353.806 572.467,353.878 573.299,353.878C576.179,353.878 578.411,353.054 579.995,351.406C581.579,349.758 582.371,347.59 582.371,344.902L582.371,340.294L582.899,340.438C582.611,341.59 582.139,342.598 581.483,343.462C580.827,344.326 580.051,345.054 579.155,345.646C578.259,346.238 577.291,346.686 576.251,346.99C575.211,347.294 574.179,347.446 573.155,347.446C570.947,347.446 568.963,346.886 567.203,345.766C565.443,344.646 564.043,343.126 563.003,341.206C561.963,339.286 561.443,337.094 561.443,334.63C561.443,332.198 561.963,330.014 563.003,328.078C564.043,326.142 565.435,324.622 567.179,323.518C568.923,322.414 570.899,321.862 573.107,321.862ZM573.443,324.55C571.683,324.55 570.107,324.99 568.715,325.87C567.323,326.75 566.235,327.95 565.451,329.47C564.667,330.99 564.275,332.71 564.275,334.63C564.275,336.55 564.667,338.278 565.451,339.814C566.235,341.35 567.323,342.558 568.715,343.438C570.107,344.318 571.683,344.758 573.443,344.758C575.203,344.758 576.771,344.326 578.147,343.462C579.523,342.598 580.611,341.406 581.411,339.886C582.211,338.366 582.611,336.614 582.611,334.63C582.611,332.646 582.211,330.894 581.411,329.374C580.611,327.854 579.523,326.67 578.147,325.822C576.771,324.974 575.203,324.55 573.443,324.55Z" style="fill:url(#_Linear3);fill-rule:nonzero;"/>
            <path d="M610.787,322.582C611.203,322.582 611.547,322.726 611.819,323.014C612.091,323.302 612.227,323.638 612.227,324.022L612.227,337.558C612.227,340.726 611.331,343.142 609.539,344.806C607.747,346.47 605.331,347.302 602.291,347.302C599.283,347.302 596.891,346.47 595.115,344.806C593.339,343.142 592.451,340.726 592.451,337.558L592.451,324.022C592.451,323.638 592.587,323.302 592.859,323.014C593.131,322.726 593.475,322.582 593.891,322.582C594.307,322.582 594.651,322.726 594.923,323.014C595.195,323.302 595.331,323.638 595.331,324.022L595.331,337.558C595.331,339.862 595.947,341.614 597.179,342.814C598.411,344.014 600.115,344.614 602.291,344.614C604.499,344.614 606.227,344.014 607.475,342.814C608.723,341.614 609.347,339.862 609.347,337.558L609.347,324.022C609.347,323.638 609.475,323.302 609.731,323.014C609.987,322.726 610.339,322.582 610.787,322.582Z" style="fill:url(#_Linear4);fill-rule:nonzero;"/>
            <path d="M621.203,346.966C620.755,346.966 620.403,346.822 620.147,346.534C619.891,346.246 619.763,345.91 619.763,345.526L619.763,324.022C619.763,323.638 619.899,323.302 620.171,323.014C620.443,322.726 620.787,322.582 621.203,322.582C621.619,322.582 621.963,322.726 622.235,323.014C622.507,323.302 622.643,323.638 622.643,324.022L622.643,331.222L621.923,331.366C622.019,330.246 622.299,329.134 622.763,328.03C623.227,326.926 623.859,325.91 624.659,324.982C625.459,324.054 626.411,323.302 627.515,322.726C628.619,322.15 629.859,321.862 631.235,321.862C631.811,321.862 632.371,321.982 632.915,322.222C633.459,322.462 633.731,322.854 633.731,323.398C633.731,323.878 633.603,324.246 633.347,324.502C633.091,324.758 632.787,324.886 632.435,324.886C632.147,324.886 631.835,324.806 631.499,324.646C631.163,324.486 630.723,324.406 630.179,324.406C629.283,324.406 628.387,324.67 627.491,325.198C626.595,325.726 625.779,326.438 625.043,327.334C624.307,328.23 623.723,329.23 623.291,330.334C622.859,331.438 622.643,332.55 622.643,333.67L622.643,345.526C622.643,345.91 622.499,346.246 622.211,346.534C621.923,346.822 621.587,346.966 621.203,346.966Z" style="fill:url(#_Linear5);fill-rule:nonzero;"/>
        </g>
    </g>
    <defs>
        <linearGradient id="_Linear1" x1="0" y1="0" x2="1" y2="0" gradientUnits="userSpaceOnUse" gradientTransform="matrix(127.728,0,0,34.704,506.003,339.214)"><stop offset="0" style="stop-color:rgb(0,179,255);stop-opacity:1"/><stop offset="1" style="stop-color:rgb(0,77,255);stop-opacity:1"/></linearGradient>
        <linearGradient id="_Linear2" x1="0" y1="0" x2="1" y2="0" gradientUnits="userSpaceOnUse" gradientTransform="matrix(127.728,0,0,34.704,506.003,339.214)"><stop offset="0" style="stop-color:rgb(0,179,255);stop-opacity:1"/><stop offset="1" style="stop-color:rgb(0,77,255);stop-opacity:1"/></linearGradient>
        <linearGradient id="_Linear3" x1="0" y1="0" x2="1" y2="0" gradientUnits="userSpaceOnUse" gradientTransform="matrix(127.728,0,0,34.704,506.003,339.214)"><stop offset="0" style="stop-color:rgb(0,179,255);stop-opacity:1"/><stop offset="1" style="stop-color:rgb(0,77,255);stop-opacity:1"/></linearGradient>
        <linearGradient id="_Linear4" x1="0" y1="0" x2="1" y2="0" gradientUnits="userSpaceOnUse" gradientTransform="matrix(127.728,0,0,34.704,506.003,339.214)"><stop offset="0" style="stop-color:rgb(0,179,255);stop-opacity:1"/><stop offset="1" style="stop-color:rgb(0,77,255);stop-opacity:1"/></linearGradient>
        <linearGradient id="_Linear5" x1="0" y1="0" x2="1" y2="0" gradientUnits="userSpaceOnUse" gradientTransform="matrix(127.728,0,0,34.704,506.003,339.214)"><stop offset="0" style="stop-color:rgb(0,179,255);stop-opacity:1"/><stop offset="1" style="stop-color:rgb(0,77,255);stop-opacity:1"/></linearGradient>
    </defs>
</svg>
