<?xml version="1.0" encoding="UTF-8" standalone="no"?>
<!DOCTYPE svg PUBLIC "-//W3C//DTD SVG 1.1//EN" "http://www.w3.org/Graphics/SVG/1.1/DTD/svg11.dtd">
<svg width="100%" height="100%" viewBox="0 0 609 320" version="1.1" xmlns="http://www.w3.org/2000/svg" xmlns:xlink="http://www.w3.org/1999/xlink" xml:space="preserve" xmlns:serif="http://www.serif.com/" style="fill-rule:evenodd;clip-rule:evenodd;stroke-linecap:square;stroke-linejoin:round;stroke-miterlimit:1.5;">
    <g transform="matrix(1,0,0,1,-101.772,-242.497)">
        <rect x="45.605" y="89.456" width="717.477" height="518.877" style="fill:white;"/>
        <g transform="matrix(0.856767,0,0,0.852264,-318.044,140.225)">
            <g transform="matrix(1.54348,0,0,1,381.957,70)">
                <path d="M70,180L530,180" style="fill:none;stroke:rgb(230,230,230);stroke-width:0.5px;"/>
            </g>
            <g transform="matrix(1.54348,0,0,1,381.957,80)">
                <path d="M70,180L530,180" style="fill:none;stroke:rgb(230,230,230);stroke-width:0.5px;"/>
            </g>
            <g transform="matrix(1.54348,0,0,1,381.957,90)">
                <path d="M70,180L530,180" style="fill:none;stroke:rgb(230,230,230);stroke-width:0.5px;"/>
            </g>
            <g transform="matrix(1.54348,0,0,1,381.957,100)">
                <path d="M70,180L530,180" style="fill:none;stroke:rgb(230,230,230);stroke-width:0.5px;"/>
            </g>
            <g transform="matrix(1.54348,0,0,1,381.957,110)">
                <path d="M70,180L530,180" style="fill:none;stroke:rgb(230,230,230);stroke-width:0.5px;"/>
            </g>
            <g transform="matrix(1.54348,0,0,1,381.957,120)">
                <path d="M70,180L530,180" style="fill:none;stroke:rgb(230,230,230);stroke-width:0.5px;"/>
            </g>
            <g transform="matrix(1.54348,0,0,1,381.957,130)">
                <path d="M70,180L530,180" style="fill:none;stroke:rgb(230,230,230);stroke-width:0.5px;"/>
            </g>
            <g transform="matrix(1.54348,0,0,1,381.957,140)">
                <path d="M70,180L530,180" style="fill:none;stroke:rgb(230,230,230);stroke-width:0.5px;"/>
            </g>
            <g transform="matrix(1.54348,0,0,1,381.957,150)">
                <path d="M70,180L530,180" style="fill:none;stroke:rgb(230,230,230);stroke-width:0.5px;"/>
            </g>
            <g transform="matrix(1.54348,0,0,1,381.957,160)">
                <path d="M70,180L530,180" style="fill:none;stroke:rgb(230,230,230);stroke-width:0.5px;"/>
            </g>
            <g transform="matrix(1.54348,0,0,1,381.957,170)">
                <path d="M70,180L530,180" style="fill:none;stroke:rgb(230,230,230);stroke-width:0.5px;"/>
            </g>
            <g transform="matrix(1.54348,0,0,1,381.957,180)">
                <path d="M70,180L530,180" style="fill:none;stroke:rgb(230,230,230);stroke-width:0.5px;"/>
            </g>
            <g transform="matrix(1.54348,0,0,1,381.957,130)">
                <path d="M70,180L530,180" style="fill:none;stroke:rgb(230,230,230);stroke-width:0.5px;"/>
            </g>
            <g transform="matrix(1.54348,0,0,1,381.957,140)">
                <path d="M70,180L530,180" style="fill:none;stroke:rgb(230,230,230);stroke-width:0.5px;"/>
            </g>
            <g transform="matrix(1.54348,0,0,1,381.957,150)">
                <path d="M70,180L530,180" style="fill:none;stroke:rgb(230,230,230);stroke-width:0.5px;"/>
            </g>
            <g transform="matrix(1.54348,0,0,1,381.957,160)">
                <path d="M70,180L530,180" style="fill:none;stroke:rgb(230,230,230);stroke-width:0.5px;"/>
            </g>
            <g transform="matrix(1.54348,0,0,1,381.957,170)">
                <path d="M70,180L530,180" style="fill:none;stroke:rgb(230,230,230);stroke-width:0.5px;"/>
            </g>
            <g transform="matrix(1.54348,0,0,1,381.957,180)">
                <path d="M70,180L530,180" style="fill:none;stroke:rgb(230,230,230);stroke-width:0.5px;"/>
            </g>
            <g transform="matrix(1.54348,0,0,1,381.957,-50)">
                <path d="M70,180L530,180" style="fill:none;stroke:rgb(230,230,230);stroke-width:0.5px;"/>
            </g>
            <g transform="matrix(1.54348,0,0,1,381.957,-40)">
                <path d="M70,180L530,180" style="fill:none;stroke:rgb(230,230,230);stroke-width:0.5px;"/>
            </g>
            <g transform="matrix(1.54348,0,0,1,381.957,-30)">
                <path d="M70,180L530,180" style="fill:none;stroke:rgb(230,230,230);stroke-width:0.5px;"/>
            </g>
            <g transform="matrix(1.54348,0,0,1,381.957,-20)">
                <path d="M70,180L530,180" style="fill:none;stroke:rgb(230,230,230);stroke-width:0.5px;"/>
            </g>
            <g transform="matrix(1.54348,0,0,1,381.957,-10)">
                <path d="M70,180L530,180" style="fill:none;stroke:rgb(230,230,230);stroke-width:0.5px;"/>
            </g>
            <g transform="matrix(1.54348,0,0,1,381.957,1.42109e-14)">
                <path d="M70,180L530,180" style="fill:none;stroke:rgb(230,230,230);stroke-width:0.5px;"/>
            </g>
            <g transform="matrix(1.54348,0,0,1,381.957,10)">
                <path d="M70,180L530,180" style="fill:none;stroke:rgb(230,230,230);stroke-width:0.5px;"/>
            </g>
            <g transform="matrix(1.54348,0,0,1,381.957,20)">
                <path d="M70,180L530,180" style="fill:none;stroke:rgb(230,230,230);stroke-width:0.5px;"/>
            </g>
            <g transform="matrix(1.54348,0,0,1,381.957,30)">
                <path d="M70,180L530,180" style="fill:none;stroke:rgb(230,230,230);stroke-width:0.5px;"/>
            </g>
            <g transform="matrix(1.54348,0,0,1,381.957,40)">
                <path d="M70,180L530,180" style="fill:none;stroke:rgb(230,230,230);stroke-width:0.5px;"/>
            </g>
            <g transform="matrix(1.54348,0,0,1,381.957,50)">
                <path d="M70,180L530,180" style="fill:none;stroke:rgb(230,230,230);stroke-width:0.5px;"/>
            </g>
            <g transform="matrix(1.54348,0,0,1,381.957,60)">
                <path d="M70,180L530,180" style="fill:none;stroke:rgb(230,230,230);stroke-width:0.5px;"/>
            </g>
            <g transform="matrix(1.54348,0,0,1,381.957,10)">
                <path d="M70,180L530,180" style="fill:none;stroke:rgb(230,230,230);stroke-width:0.5px;"/>
            </g>
            <g transform="matrix(1.54348,0,0,1,381.957,20)">
                <path d="M70,180L530,180" style="fill:none;stroke:rgb(230,230,230);stroke-width:0.5px;"/>
            </g>
            <g transform="matrix(1.54348,0,0,1,381.957,30)">
                <path d="M70,180L530,180" style="fill:none;stroke:rgb(230,230,230);stroke-width:0.5px;"/>
            </g>
            <g transform="matrix(1.54348,0,0,1,381.957,40)">
                <path d="M70,180L530,180" style="fill:none;stroke:rgb(230,230,230);stroke-width:0.5px;"/>
            </g>
            <g transform="matrix(1.54348,0,0,1,381.957,50)">
                <path d="M70,180L530,180" style="fill:none;stroke:rgb(230,230,230);stroke-width:0.5px;"/>
            </g>
            <g transform="matrix(1.54348,0,0,1,381.957,60)">
                <path d="M70,180L530,180" style="fill:none;stroke:rgb(230,230,230);stroke-width:0.5px;"/>
            </g>
            <g transform="matrix(1.54348,0,0,1,381.957,310)">
                <path d="M70,180L530,180" style="fill:none;stroke:rgb(230,230,230);stroke-width:0.5px;"/>
            </g>
            <g transform="matrix(1.54348,0,0,1,381.957,190)">
                <path d="M70,180L530,180" style="fill:none;stroke:rgb(230,230,230);stroke-width:0.5px;"/>
            </g>
            <g transform="matrix(1.54348,0,0,1,381.957,200)">
                <path d="M70,180L530,180" style="fill:none;stroke:rgb(230,230,230);stroke-width:0.5px;"/>
            </g>
            <g transform="matrix(1.54348,0,0,1,381.957,210)">
                <path d="M70,180L530,180" style="fill:none;stroke:rgb(230,230,230);stroke-width:0.5px;"/>
            </g>
            <g transform="matrix(1.54348,0,0,1,381.957,220)">
                <path d="M70,180L530,180" style="fill:none;stroke:rgb(230,230,230);stroke-width:0.5px;"/>
            </g>
            <g transform="matrix(1.54348,0,0,1,381.957,230)">
                <path d="M70,180L530,180" style="fill:none;stroke:rgb(230,230,230);stroke-width:0.5px;"/>
            </g>
            <g transform="matrix(1.54348,0,0,1,381.957,240)">
                <path d="M70,180L530,180" style="fill:none;stroke:rgb(230,230,230);stroke-width:0.5px;"/>
            </g>
            <g transform="matrix(1.54348,0,0,1,381.957,250)">
                <path d="M70,180L530,180" style="fill:none;stroke:rgb(230,230,230);stroke-width:0.5px;"/>
            </g>
            <g transform="matrix(1.54348,0,0,1,381.957,260)">
                <path d="M70,180L530,180" style="fill:none;stroke:rgb(230,230,230);stroke-width:0.5px;"/>
            </g>
            <g transform="matrix(1.54348,0,0,1,381.957,270)">
                <path d="M70,180L530,180" style="fill:none;stroke:rgb(230,230,230);stroke-width:0.5px;"/>
            </g>
            <g transform="matrix(1.54348,0,0,1,381.957,280)">
                <path d="M70,180L530,180" style="fill:none;stroke:rgb(230,230,230);stroke-width:0.5px;"/>
            </g>
            <g transform="matrix(1.54348,0,0,1,381.957,290)">
                <path d="M70,180L530,180" style="fill:none;stroke:rgb(230,230,230);stroke-width:0.5px;"/>
            </g>
            <g transform="matrix(1.54348,0,0,1,381.957,300)">
                <path d="M70,180L530,180" style="fill:none;stroke:rgb(230,230,230);stroke-width:0.5px;"/>
            </g>
            <g transform="matrix(1.54348,0,0,1,381.957,250)">
                <path d="M70,180L530,180" style="fill:none;stroke:rgb(230,230,230);stroke-width:0.5px;"/>
            </g>
            <g transform="matrix(1.54348,0,0,1,381.957,260)">
                <path d="M70,180L530,180" style="fill:none;stroke:rgb(230,230,230);stroke-width:0.5px;"/>
            </g>
            <g transform="matrix(1.54348,0,0,1,381.957,270)">
                <path d="M70,180L530,180" style="fill:none;stroke:rgb(230,230,230);stroke-width:0.5px;"/>
            </g>
            <g transform="matrix(1.54348,0,0,1,381.957,280)">
                <path d="M70,180L530,180" style="fill:none;stroke:rgb(230,230,230);stroke-width:0.5px;"/>
            </g>
            <g transform="matrix(1.54348,0,0,1,381.957,290)">
                <path d="M70,180L530,180" style="fill:none;stroke:rgb(230,230,230);stroke-width:0.5px;"/>
            </g>
            <g transform="matrix(1.54348,0,0,1,381.957,300)">
                <path d="M70,180L530,180" style="fill:none;stroke:rgb(230,230,230);stroke-width:0.5px;"/>
            </g>
            <g transform="matrix(1,0,0,1,-100,90)">
                <path d="M600,30L600,520" style="fill:none;stroke:rgb(230,230,230);stroke-width:0.65px;"/>
            </g>
            <g transform="matrix(1,0,0,1,-90,90)">
                <path d="M600,30L600,520" style="fill:none;stroke:rgb(230,230,230);stroke-width:0.65px;"/>
            </g>
            <g transform="matrix(1,0,0,1,-40,90)">
                <path d="M600,30L600,520" style="fill:none;stroke:rgb(230,230,230);stroke-width:0.65px;"/>
            </g>
            <g transform="matrix(1,0,0,1,-80,90)">
                <path d="M600,30L600,520" style="fill:none;stroke:rgb(230,230,230);stroke-width:0.65px;"/>
            </g>
            <g transform="matrix(1,0,0,1,-70,90)">
                <path d="M600,30L600,520" style="fill:none;stroke:rgb(230,230,230);stroke-width:0.65px;"/>
            </g>
            <g transform="matrix(1,0,0,1,-60,90)">
                <path d="M600,30L600,520" style="fill:none;stroke:rgb(230,230,230);stroke-width:0.65px;"/>
            </g>
            <g transform="matrix(1,0,0,1,-100,90)">
                <path d="M600,30L600,520" style="fill:none;stroke:rgb(230,230,230);stroke-width:0.65px;"/>
            </g>
            <g transform="matrix(1,0,0,1,-50,90)">
                <path d="M600,30L600,520" style="fill:none;stroke:rgb(230,230,230);stroke-width:0.65px;"/>
            </g>
            <g transform="matrix(1,0,0,1,-80,90)">
                <path d="M600,30L600,520" style="fill:none;stroke:rgb(230,230,230);stroke-width:0.65px;"/>
            </g>
            <g transform="matrix(1,0,0,1,-30,90)">
                <path d="M600,30L600,520" style="fill:none;stroke:rgb(230,230,230);stroke-width:0.65px;"/>
            </g>
            <g transform="matrix(1,0,0,1,-70,90)">
                <path d="M600,30L600,520" style="fill:none;stroke:rgb(230,230,230);stroke-width:0.65px;"/>
            </g>
            <g transform="matrix(1,0,0,1,-20,90)">
                <path d="M600,30L600,520" style="fill:none;stroke:rgb(230,230,230);stroke-width:0.65px;"/>
            </g>
            <g transform="matrix(1,0,0,1,-60,90)">
                <path d="M600,30L600,520" style="fill:none;stroke:rgb(230,230,230);stroke-width:0.65px;"/>
            </g>
            <g transform="matrix(1,0,0,1,-10,90)">
                <path d="M600,30L600,520" style="fill:none;stroke:rgb(230,230,230);stroke-width:0.65px;"/>
            </g>
            <g transform="matrix(1,0,0,1,10,90)">
                <path d="M600,30L600,520" style="fill:none;stroke:rgb(230,230,230);stroke-width:0.65px;"/>
            </g>
            <g transform="matrix(1,0,0,1,60,90)">
                <path d="M600,30L600,520" style="fill:none;stroke:rgb(230,230,230);stroke-width:0.65px;"/>
            </g>
            <g transform="matrix(1,0,0,1,0,90)">
                <path d="M600,30L600,520" style="fill:none;stroke:rgb(230,230,230);stroke-width:0.65px;"/>
            </g>
            <g transform="matrix(1,0,0,1,50,90)">
                <path d="M600,30L600,520" style="fill:none;stroke:rgb(230,230,230);stroke-width:0.65px;"/>
            </g>
            <g transform="matrix(1,0,0,1,20,90)">
                <path d="M600,30L600,520" style="fill:none;stroke:rgb(230,230,230);stroke-width:0.65px;"/>
            </g>
            <g transform="matrix(1,0,0,1,70,90)">
                <path d="M600,30L600,520" style="fill:none;stroke:rgb(230,230,230);stroke-width:0.65px;"/>
            </g>
            <g transform="matrix(1,0,0,1,30,90)">
                <path d="M600,30L600,520" style="fill:none;stroke:rgb(230,230,230);stroke-width:0.65px;"/>
            </g>
            <g transform="matrix(1,0,0,1,80,90)">
                <path d="M600,30L600,520" style="fill:none;stroke:rgb(230,230,230);stroke-width:0.65px;"/>
            </g>
            <g transform="matrix(1,0,0,1,40,90)">
                <path d="M600,30L600,520" style="fill:none;stroke:rgb(230,230,230);stroke-width:0.65px;"/>
            </g>
            <g transform="matrix(1,0,0,1,90,90)">
                <path d="M600,30L600,520" style="fill:none;stroke:rgb(230,230,230);stroke-width:0.65px;"/>
            </g>
            <g transform="matrix(1,0,0,1,110,90)">
                <path d="M600,30L600,520" style="fill:none;stroke:rgb(230,230,230);stroke-width:0.65px;"/>
            </g>
            <g transform="matrix(1,0,0,1,160,90)">
                <path d="M600,30L600,520" style="fill:none;stroke:rgb(230,230,230);stroke-width:0.65px;"/>
            </g>
            <g transform="matrix(1,0,0,1,100,90)">
                <path d="M600,30L600,520" style="fill:none;stroke:rgb(230,230,230);stroke-width:0.65px;"/>
            </g>
            <g transform="matrix(1,0,0,1,150,90)">
                <path d="M600,30L600,520" style="fill:none;stroke:rgb(230,230,230);stroke-width:0.65px;"/>
            </g>
            <g transform="matrix(1,0,0,1,120,90)">
                <path d="M600,30L600,520" style="fill:none;stroke:rgb(230,230,230);stroke-width:0.65px;"/>
            </g>
            <g transform="matrix(1,0,0,1,170,90)">
                <path d="M600,30L600,520" style="fill:none;stroke:rgb(230,230,230);stroke-width:0.65px;"/>
            </g>
            <g transform="matrix(1,0,0,1,130,90)">
                <path d="M600,30L600,520" style="fill:none;stroke:rgb(230,230,230);stroke-width:0.65px;"/>
            </g>
            <g transform="matrix(1,0,0,1,180,90)">
                <path d="M600,30L600,520" style="fill:none;stroke:rgb(230,230,230);stroke-width:0.65px;"/>
            </g>
            <g transform="matrix(1,0,0,1,140,90)">
                <path d="M600,30L600,520" style="fill:none;stroke:rgb(230,230,230);stroke-width:0.65px;"/>
            </g>
            <g transform="matrix(1,0,0,1,190,90)">
                <path d="M600,30L600,520" style="fill:none;stroke:rgb(230,230,230);stroke-width:0.65px;"/>
            </g>
            <g transform="matrix(1,0,0,1,200,90)">
                <path d="M600,30L600,520" style="fill:none;stroke:rgb(230,230,230);stroke-width:0.65px;"/>
            </g>
            <g transform="matrix(1,0,0,1,250,90)">
                <path d="M600,30L600,520" style="fill:none;stroke:rgb(230,230,230);stroke-width:0.65px;"/>
            </g>
            <g transform="matrix(1,0,0,1,190,90)">
                <path d="M600,30L600,520" style="fill:none;stroke:rgb(230,230,230);stroke-width:0.65px;"/>
            </g>
            <g transform="matrix(1,0,0,1,240,90)">
                <path d="M600,30L600,520" style="fill:none;stroke:rgb(230,230,230);stroke-width:0.65px;"/>
            </g>
            <g transform="matrix(1,0,0,1,210,90)">
                <path d="M600,30L600,520" style="fill:none;stroke:rgb(230,230,230);stroke-width:0.65px;"/>
            </g>
            <g transform="matrix(1,0,0,1,260,90)">
                <path d="M600,30L600,520" style="fill:none;stroke:rgb(230,230,230);stroke-width:0.65px;"/>
            </g>
            <g transform="matrix(1,0,0,1,220,90)">
                <path d="M600,30L600,520" style="fill:none;stroke:rgb(230,230,230);stroke-width:0.65px;"/>
            </g>
            <g transform="matrix(1,0,0,1,270,90)">
                <path d="M600,30L600,520" style="fill:none;stroke:rgb(230,230,230);stroke-width:0.65px;"/>
            </g>
            <g transform="matrix(1,0,0,1,230,90)">
                <path d="M600,30L600,520" style="fill:none;stroke:rgb(230,230,230);stroke-width:0.65px;"/>
            </g>
            <g transform="matrix(1,0,0,1,280,90)">
                <path d="M600,30L600,520" style="fill:none;stroke:rgb(230,230,230);stroke-width:0.65px;"/>
            </g>
            <g transform="matrix(1,0,0,1,300,90)">
                <path d="M600,30L600,520" style="fill:none;stroke:rgb(230,230,230);stroke-width:0.65px;"/>
            </g>
            <g transform="matrix(1,0,0,1,290,90)">
                <path d="M600,30L600,520" style="fill:none;stroke:rgb(230,230,230);stroke-width:0.65px;"/>
            </g>
            <g transform="matrix(1,0,0,1,340,90)">
                <path d="M600,30L600,520" style="fill:none;stroke:rgb(230,230,230);stroke-width:0.65px;"/>
            </g>
            <g transform="matrix(1,0,0,1,310,90)">
                <path d="M600,30L600,520" style="fill:none;stroke:rgb(230,230,230);stroke-width:0.65px;"/>
            </g>
            <g transform="matrix(1,0,0,1,320,90)">
                <path d="M600,30L600,520" style="fill:none;stroke:rgb(230,230,230);stroke-width:0.65px;"/>
            </g>
            <g transform="matrix(1,0,0,1,330,90)">
                <path d="M600,30L600,520" style="fill:none;stroke:rgb(230,230,230);stroke-width:0.65px;"/>
            </g>
            <g transform="matrix(1,0,0,1,360.173,90)">
                <path d="M600,30L600,520" style="fill:none;stroke:rgb(230,230,230);stroke-width:0.65px;"/>
            </g>
            <g transform="matrix(1,0,0,1,410.173,90)">
                <path d="M600,30L600,520" style="fill:none;stroke:rgb(230,230,230);stroke-width:0.65px;"/>
            </g>
            <g transform="matrix(1,0,0,1,350.173,90)">
                <path d="M600,30L600,520" style="fill:none;stroke:rgb(230,230,230);stroke-width:0.65px;"/>
            </g>
            <g transform="matrix(1,0,0,1,400.173,90)">
                <path d="M600,30L600,520" style="fill:none;stroke:rgb(230,230,230);stroke-width:0.65px;"/>
            </g>
            <g transform="matrix(1,0,0,1,370.173,90)">
                <path d="M600,30L600,520" style="fill:none;stroke:rgb(230,230,230);stroke-width:0.65px;"/>
            </g>
            <g transform="matrix(1,0,0,1,420.173,90)">
                <path d="M600,30L600,520" style="fill:none;stroke:rgb(230,230,230);stroke-width:0.65px;"/>
            </g>
            <g transform="matrix(1,0,0,1,380.173,90)">
                <path d="M600,30L600,520" style="fill:none;stroke:rgb(230,230,230);stroke-width:0.65px;"/>
            </g>
            <g transform="matrix(1,0,0,1,430.173,90)">
                <path d="M600,30L600,520" style="fill:none;stroke:rgb(230,230,230);stroke-width:0.65px;"/>
            </g>
            <g transform="matrix(1,0,0,1,390.173,90)">
                <path d="M600,30L600,520" style="fill:none;stroke:rgb(230,230,230);stroke-width:0.65px;"/>
            </g>
            <g transform="matrix(1,0,0,1,440.173,90)">
                <path d="M600,30L600,520" style="fill:none;stroke:rgb(230,230,230);stroke-width:0.65px;"/>
            </g>
            <g transform="matrix(1,0,0,1,450.173,90)">
                <path d="M600,30L600,520" style="fill:none;stroke:rgb(230,230,230);stroke-width:0.65px;"/>
            </g>
            <g transform="matrix(1,0,0,1,500.173,90)">
                <path d="M600,30L600,520" style="fill:none;stroke:rgb(230,230,230);stroke-width:0.65px;"/>
            </g>
            <g transform="matrix(1,0,0,1,440.173,90)">
                <path d="M600,30L600,520" style="fill:none;stroke:rgb(230,230,230);stroke-width:0.65px;"/>
            </g>
            <g transform="matrix(1,0,0,1,490.173,90)">
                <path d="M600,30L600,520" style="fill:none;stroke:rgb(230,230,230);stroke-width:0.65px;"/>
            </g>
            <g transform="matrix(1,0,0,1,460.173,90)">
                <path d="M600,30L600,520" style="fill:none;stroke:rgb(230,230,230);stroke-width:0.65px;"/>
            </g>
            <g transform="matrix(1,0,0,1,510.173,90)">
                <path d="M600,30L600,520" style="fill:none;stroke:rgb(230,230,230);stroke-width:0.65px;"/>
            </g>
            <g transform="matrix(1,0,0,1,470.173,90)">
                <path d="M600,30L600,520" style="fill:none;stroke:rgb(230,230,230);stroke-width:0.65px;"/>
            </g>
            <g transform="matrix(1,0,0,1,520.173,90)">
                <path d="M600,30L600,520" style="fill:none;stroke:rgb(230,230,230);stroke-width:0.65px;"/>
            </g>
            <g transform="matrix(1,0,0,1,480.173,90)">
                <path d="M600,30L600,520" style="fill:none;stroke:rgb(230,230,230);stroke-width:0.65px;"/>
            </g>
            <g transform="matrix(1,0,0,1,530.173,90)">
                <path d="M600,30L600,520" style="fill:none;stroke:rgb(230,230,230);stroke-width:0.65px;"/>
            </g>
            <g transform="matrix(1,0,0,1,550.173,90)">
                <path d="M600,30L600,520" style="fill:none;stroke:rgb(230,230,230);stroke-width:0.65px;"/>
            </g>
            <g transform="matrix(1,0,0,1,540.173,90)">
                <path d="M600,30L600,520" style="fill:none;stroke:rgb(230,230,230);stroke-width:0.65px;"/>
            </g>
            <g transform="matrix(1,0,0,1,590.173,90)">
                <path d="M600,30L600,520" style="fill:none;stroke:rgb(230,230,230);stroke-width:0.65px;"/>
            </g>
            <g transform="matrix(1,0,0,1,560.173,90)">
                <path d="M600,30L600,520" style="fill:none;stroke:rgb(230,230,230);stroke-width:0.65px;"/>
            </g>
            <g transform="matrix(1,0,0,1,570.173,90)">
                <path d="M600,30L600,520" style="fill:none;stroke:rgb(230,230,230);stroke-width:0.65px;"/>
            </g>
            <g transform="matrix(1,0,0,1,580.173,90)">
                <path d="M600,30L600,520" style="fill:none;stroke:rgb(230,230,230);stroke-width:0.65px;"/>
            </g>
        </g>
        <g transform="matrix(0.856767,0,0,1.09704,56.1665,54.6107)">
            <rect x="53.229" y="171.267" width="710" height="291.226" style="fill:url(#_Radial1);"/>
        </g>
        <g transform="matrix(1,0,0,1.14252,0,-43.4453)">
            <g transform="matrix(1,-0,-0,0.875258,101.772,250.273)">
                <path d="M298.429,224.685L292.218,232.967L286.006,224.685L298.429,224.685Z" style="fill:rgb(255,74,164);"/>
                <path d="M552.988,62.337L565.621,62.337C569.251,62.337 572.193,65.28 572.193,68.909C572.193,91.085 572.193,163.284 572.193,190.459C572.193,193.237 571.089,195.9 569.125,197.864C567.161,199.828 564.498,200.932 561.72,200.932L302.69,200.932C296.906,200.932 292.218,205.62 292.218,211.404C292.218,216.32 292.218,222.032 292.218,226.341" style="fill:none;stroke:rgb(255,74,164);stroke-width:1px;stroke-linecap:butt;"/>
            </g>
        </g>
        <g transform="matrix(0.608192,0,0,0.397847,76.5905,235.98)">
            <path d="M330.717,99.593C330.717,89.956 325.607,82.143 319.303,82.143C278.6,82.143 140.83,82.143 100.127,82.143C93.823,82.143 88.712,89.956 88.712,99.593C88.712,134.336 88.712,211.801 88.712,246.544C88.712,256.181 93.823,263.993 100.127,263.993C140.83,263.993 278.6,263.993 319.303,263.993C325.607,263.993 330.717,256.181 330.717,246.544C330.717,211.801 330.717,134.336 330.717,99.593Z" style="fill:rgb(253,253,253);stroke:rgb(0,133,255);stroke-width:1.95px;stroke-linecap:round;"/>
        </g>
        <g transform="matrix(0.608192,0,0,0.397847,265.283,235.98)">
            <path d="M330.717,99.593C330.717,89.956 325.607,82.143 319.303,82.143C278.6,82.143 140.83,82.143 100.127,82.143C93.823,82.143 88.712,89.956 88.712,99.593C88.712,134.336 88.712,211.801 88.712,246.544C88.712,256.181 93.823,263.993 100.127,263.993C140.83,263.993 278.6,263.993 319.303,263.993C325.607,263.993 330.717,256.181 330.717,246.544C330.717,211.801 330.717,134.336 330.717,99.593Z" style="fill:rgb(253,253,253);stroke:rgb(126,126,126);stroke-width:2.92px;stroke-linecap:round;stroke-dasharray:0.58,5.84,0,0;"/>
        </g>
        <g transform="matrix(0.439269,0,0,0.439269,417.729,397.694)">
            <text x="503.651px" y="346.966px" style="font-family:'Quicksand-Regular', 'Quicksand';font-size:48px;fill:url(#_Linear2);">a<tspan x="532.259px 559.091px 588.659px " y="346.966px 346.966px 346.966px ">ugu</tspan>r</text>
        </g>
        <g transform="matrix(1,0,0,1,-340.19,-128.35)">
            <text x="480.657px" y="414.594px" style="font-family:'Karla-SemiBold', 'Karla', sans-serif;font-weight:600;font-size:12.1px;fill:rgb(0,133,255);">Data</text>
            <text x="480.657px" y="429.394px" style="font-family:'Karla-Light', 'Karla', sans-serif;font-weight:300;font-size:11.8px;fill:rgb(75,75,75);">A lar<tspan x="503.141px " y="429.394px ">g</tspan>e dataset</text>
            <text x="480.657px" y="441.194px" style="font-family:'Karla-Light', 'Karla', sans-serif;font-weight:300;font-size:11.8px;fill:rgb(75,75,75);">containing predictors of</text>
            <text x="480.657px" y="452.994px" style="font-family:'Karla-Light', 'Karla', sans-serif;font-weight:300;font-size:11.8px;fill:rgb(75,75,75);">interest</text>
        </g>
        <g transform="matrix(1,0,0,1,-148.494,-128.35)">
            <text x="480.657px" y="414.594px" style="font-family:'Karla-SemiBold', 'Karla', sans-serif;font-weight:600;font-size:12.1px;fill:rgb(0,133,255);">Exploratory F<tspan x="554.364px " y="414.594px ">A</tspan></text>
            <text x="480.657px" y="429.394px" style="font-family:'Karla-Light', 'Karla', sans-serif;font-weight:300;font-size:11.8px;fill:rgb(75,75,75);">Reduces the</text>
            <text x="480.657px" y="441.194px" style="font-family:'Karla-Light', 'Karla', sans-serif;font-weight:300;font-size:11.8px;fill:rgb(75,75,75);">dimensionality of the</text>
            <text x="480.657px" y="452.994px" style="font-family:'Karla-Light', 'Karla', sans-serif;font-weight:300;font-size:11.8px;fill:rgb(75,75,75);">data</text>
        </g>
        <g transform="matrix(1.04773,0,0,1,-14.4112,-20.8577)">
            <g transform="matrix(0.954449,-0,-0,1,110.891,263.355)">
                <path d="M208.36,57.275L215.11,62.337L208.36,67.4L208.36,57.275Z" style="fill:rgb(126,126,126);"/>
                <path d="M177.698,62.337L209.71,62.337" style="fill:none;stroke:rgb(126,126,126);stroke-width:1.5px;stroke-dasharray:0.3,3,0,0;"/>
            </g>
        </g>
        <g transform="matrix(0.608192,0,0,0.397847,453.62,235.98)">
            <path d="M330.717,99.593C330.717,89.956 325.607,82.143 319.303,82.143C278.6,82.143 140.83,82.143 100.127,82.143C93.823,82.143 88.712,89.956 88.712,99.593C88.712,134.336 88.712,211.801 88.712,246.544C88.712,256.181 93.823,263.993 100.127,263.993C140.83,263.993 278.6,263.993 319.303,263.993C325.607,263.993 330.717,256.181 330.717,246.544C330.717,211.801 330.717,134.336 330.717,99.593Z" style="fill:rgb(253,253,253);stroke:rgb(0,133,255);stroke-width:1.95px;stroke-linecap:round;"/>
        </g>
        <g transform="matrix(1,0,0,1,39.8435,-128.35)">
            <text x="480.657px" y="414.594px" style="font-family:'Karla-SemiBold', 'Karla', sans-serif;font-weight:600;font-size:12.1px;fill:rgb(0,133,255);">F<tspan x="486.9px " y="414.594px ">a</tspan>ctor scores</text>
            <text x="480.657px" y="429.394px" style="font-family:'Karla-Light', 'Karla', sans-serif;font-weight:300;font-size:11.8px;fill:rgb(75,75,75);">Provides a score on</text>
            <text x="480.657px" y="441.194px" style="font-family:'Karla-Light', 'Karla', sans-serif;font-weight:300;font-size:11.8px;fill:rgb(75,75,75);">each dimension for</text>
            <text x="480.657px" y="452.994px" style="font-family:'Karla-Light', 'Karla', sans-serif;font-weight:300;font-size:11.8px;fill:rgb(75,75,75);">each individual</text>
        </g>
        <g transform="matrix(0.608192,0,0,0.397847,453.62,235.98)">
            <path d="M330.717,99.593C330.717,89.956 325.607,82.143 319.303,82.143C278.6,82.143 140.83,82.143 100.127,82.143C93.823,82.143 88.712,89.956 88.712,99.593C88.712,134.336 88.712,211.801 88.712,246.544C88.712,256.181 93.823,263.993 100.127,263.993C140.83,263.993 278.6,263.993 319.303,263.993C325.607,263.993 330.717,256.181 330.717,246.544C330.717,211.801 330.717,134.336 330.717,99.593Z" style="fill:rgb(253,253,253);stroke:rgb(0,133,255);stroke-width:1.95px;stroke-linecap:round;"/>
        </g>
        <g transform="matrix(1,0,0,1,39.8435,-128.35)">
            <text x="480.657px" y="414.594px" style="font-family:'Karla-SemiBold', 'Karla', sans-serif;font-weight:600;font-size:12.1px;fill:rgb(0,133,255);">F<tspan x="486.9px " y="414.594px ">a</tspan>ctor scores</text>
            <text x="480.657px" y="429.394px" style="font-family:'Karla-Light', 'Karla', sans-serif;font-weight:300;font-size:11.8px;fill:rgb(75,75,75);">Provides a score on</text>
            <text x="480.657px" y="441.194px" style="font-family:'Karla-Light', 'Karla', sans-serif;font-weight:300;font-size:11.8px;fill:rgb(75,75,75);">each dimension for</text>
            <text x="480.657px" y="452.994px" style="font-family:'Karla-Light', 'Karla', sans-serif;font-weight:300;font-size:11.8px;fill:rgb(75,75,75);">each individual</text>
        </g>
        <g transform="matrix(1.04773,0,0,1,173.927,-20.8577)">
            <g transform="matrix(0.954449,-0,-0,1,-68.8683,263.355)">
                <path d="M396.698,57.275L403.448,62.337L396.698,67.4L396.698,57.275Z" style="fill:rgb(126,126,126);"/>
                <path d="M366.036,62.337L398.048,62.337" style="fill:none;stroke:rgb(126,126,126);stroke-width:1.5px;stroke-dasharray:0.3,3,0,0;"/>
            </g>
        </g>
        <g transform="matrix(1,-0,-0,1,101.772,242.497)">
            <path d="M475.858,106.794L482.07,98.512L488.281,106.794L475.858,106.794Z" style="fill:rgb(0,133,255);"/>
            <path d="M102.366,98.512L102.366,128.23C102.366,130.898 103.426,133.457 105.312,135.344C107.199,137.231 109.758,138.291 112.426,138.291L472.009,138.291C474.677,138.291 477.236,137.231 479.123,135.344C481.01,133.457 482.07,130.898 482.07,128.23L482.07,105.137" style="fill:none;stroke:rgb(0,133,255);stroke-width:1px;stroke-linecap:butt;"/>
        </g>
        <g transform="matrix(2.75706e-17,0.450261,-0.450261,2.75706e-17,293.482,249.739)">
            <g transform="matrix(1.35993e-16,-2.22093,2.22093,1.35993e-16,-16.0843,425.777)">
                <path d="M32.498,265.871L38.168,270.123L32.498,274.376L32.498,265.871Z" style="fill:rgb(0,133,255);"/>
                <path d="M20.257,270.123L33.632,270.123" style="fill:none;stroke:rgb(0,133,255);stroke-width:1px;stroke-linecap:butt;"/>
            </g>
        </g>
        <g transform="matrix(0.608192,0,0,0.250634,266.443,335.982)">
            <path d="M330.717,109.842C330.717,102.496 329.515,95.45 327.374,90.256C325.234,85.062 322.33,82.143 319.303,82.143C278.6,82.143 140.83,82.143 100.127,82.143C97.099,82.143 94.196,85.062 92.055,90.256C89.915,95.45 88.712,102.496 88.712,109.842C88.712,144.091 88.712,202.045 88.712,236.295C88.712,243.641 89.915,250.686 92.055,255.88C94.196,261.075 97.099,263.993 100.127,263.993C140.83,263.993 278.6,263.993 319.303,263.993C322.33,263.993 325.234,261.075 327.374,255.88C329.515,250.686 330.717,243.641 330.717,236.295C330.717,202.045 330.717,144.091 330.717,109.842Z" style="fill:rgb(253,253,253);stroke:rgb(0,133,255);stroke-width:2.15px;stroke-linecap:round;"/>
        </g>
        <g transform="matrix(1,0,0,1,-150.338,-44.912)">
            <text x="480.657px" y="414.594px" style="font-family:'Karla-SemiBold', 'Karla', sans-serif;font-weight:600;font-size:12.1px;fill:rgb(0,133,255);">Bayesian regression</text>
            <text x="480.657px" y="429.394px" style="font-family:'Karla-Light', 'Karla', sans-serif;font-weight:300;font-size:11.8px;fill:rgb(75,75,75);">Predicts factor scores</text>
            <text x="480.657px" y="441.194px" style="font-family:'Karla-Light', 'Karla', sans-serif;font-weight:300;font-size:11.8px;fill:rgb(75,75,75);">from raw data</text>
        </g>
        <g transform="matrix(0.608192,0,0,0.368916,266.443,445.16)">
            <path d="M330.717,100.961C330.717,95.97 329.515,91.184 327.374,87.655C325.234,84.126 322.33,82.143 319.303,82.143C278.6,82.143 140.83,82.143 100.127,82.143C97.099,82.143 94.196,84.126 92.055,87.655C89.915,91.184 88.712,95.97 88.712,100.961C88.712,135.868 88.712,210.269 88.712,245.176C88.712,250.166 89.915,254.953 92.055,258.482C94.196,262.011 97.099,263.993 100.127,263.993C140.83,263.993 278.6,263.993 319.303,263.993C322.33,263.993 325.234,262.011 327.374,258.482C329.515,254.953 330.717,250.166 330.717,245.176C330.717,210.269 330.717,135.868 330.717,100.961Z" style="fill:rgb(253,253,253);stroke:rgb(255,74,164);stroke-width:1.99px;stroke-linecap:round;"/>
        </g>
        <g transform="matrix(1,0,0,1,-147.334,78.4537)">
            <text x="480.657px" y="414.594px" style="font-family:'Karla-SemiBold', 'Karla', sans-serif;font-weight:600;font-size:12.1px;fill:rgb(255,74,164);">Predictions</text>
            <text x="480.657px" y="429.394px" style="font-family:'Karla-Light', 'Karla', sans-serif;font-weight:300;font-size:11.8px;fill:rgb(75,75,75);">Predicts likelihood of</text>
            <text x="480.657px" y="441.194px" style="font-family:'Karla-Light', 'Karla', sans-serif;font-weight:300;font-size:11.8px;fill:rgb(75,75,75);">future s<tspan x="521.597px " y="441.194px ">y</tspan>mptoms or</text>
            <text x="480.657px" y="452.994px" style="font-family:'Karla-Light', 'Karla', sans-serif;font-weight:300;font-size:11.8px;fill:rgb(75,75,75);">treatment</text>
        </g>
        <g transform="matrix(0.608192,0,0,0.250634,438.86,398.976)">
            <path d="M330.717,109.842C330.717,102.496 329.515,95.45 327.374,90.256C325.234,85.062 322.33,82.143 319.303,82.143C278.6,82.143 140.83,82.143 100.127,82.143C97.099,82.143 94.196,85.062 92.055,90.256C89.915,95.45 88.712,102.496 88.712,109.842C88.712,144.091 88.712,202.045 88.712,236.295C88.712,243.641 89.915,250.686 92.055,255.88C94.196,261.075 97.099,263.993 100.127,263.993C140.83,263.993 278.6,263.993 319.303,263.993C322.33,263.993 325.234,261.075 327.374,255.88C329.515,250.686 330.717,243.641 330.717,236.295C330.717,202.045 330.717,144.091 330.717,109.842Z" style="fill:rgb(253,253,253);stroke:rgb(255,74,164);stroke-width:2.15px;stroke-linecap:round;"/>
        </g>
        <g transform="matrix(1,0,0,1,22.0797,18.0824)">
            <text x="480.657px" y="414.594px" style="font-family:'Karla-SemiBold', 'Karla', sans-serif;font-weight:600;font-size:12.1px;fill:rgb(255,74,164);">Bayesian regression</text>
            <text x="480.657px" y="429.394px" style="font-family:'Karla-Light', 'Karla', sans-serif;font-weight:300;font-size:11.8px;fill:rgb(75,75,75);">Predicts outcomes from</text>
            <text x="480.657px" y="441.194px" style="font-family:'Karla-Light', 'Karla', sans-serif;font-weight:300;font-size:11.8px;fill:rgb(75,75,75);">factor scores</text>
        </g>
        <g>
            <g transform="matrix(1.43878,0,0,1.43878,-465.265,81.3614)">
                <path d="M603.857,286.476C604.975,286.525 607.868,286.084 609.072,283.133C610.517,279.588 610.913,278.743 612.319,278.743M603.857,286.476L620.781,286.476C619.663,286.525 616.769,286.084 615.566,283.133C614.12,279.588 613.725,278.743 612.319,278.743" style="fill:rgb(255,209,232);"/>
            </g>
            <g transform="matrix(1.43878,0,0,1.43878,-465.265,80.9416)">
                <path d="M603.857,286.476C604.975,286.525 607.868,286.084 609.072,283.133C610.517,279.588 610.913,278.743 612.319,278.743M620.781,286.476C619.663,286.525 616.769,286.084 615.566,283.133C614.12,279.588 613.725,278.743 612.319,278.743" style="fill:none;stroke:rgb(255,74,164);stroke-width:0.7px;stroke-linecap:butt;"/>
            </g>
        </g>
        <g transform="matrix(1,0,0,1,197.805,-206.663)">
            <g transform="matrix(1.43878,0,0,1.43878,-465.265,81.3614)">
                <path d="M603.857,286.476C604.975,286.525 607.868,286.084 609.072,283.133C610.517,279.588 610.913,278.743 612.319,278.743M603.857,286.476L620.781,286.476C619.663,286.525 616.769,286.084 615.566,283.133C614.12,279.588 613.725,278.743 612.319,278.743" style="fill:rgb(206,231,255);"/>
            </g>
            <g transform="matrix(1.43878,0,0,1.43878,-465.265,80.9416)">
                <path d="M603.857,286.476C604.975,286.525 607.868,286.084 609.072,283.133C610.517,279.588 610.913,278.743 612.319,278.743M620.781,286.476C619.663,286.525 616.769,286.084 615.566,283.133C614.12,279.588 613.725,278.743 612.319,278.743" style="fill:none;stroke:rgb(0,133,255);stroke-width:0.7px;stroke-linecap:butt;"/>
            </g>
        </g>
        <g transform="matrix(1,0,0,1,-131.209,-99.9568)">
            <text x="276.538px" y="616.64px" style="font-family:'Karla-SemiBold', 'Karla', sans-serif;font-weight:600;font-size:12.1px;fill:rgb(0,133,255);">1st stage GLM</text>
        </g>
        <g transform="matrix(2.75706e-17,0.450261,-0.450261,2.75706e-17,293.482,265.484)">
            <g transform="matrix(1.35993e-16,-2.22093,2.22093,1.35993e-16,-51.053,425.777)">
                <path d="M32.498,281.616L38.168,285.869L32.498,290.121L32.498,281.616Z" style="fill:rgb(255,74,164);"/>
                <path d="M20.257,285.869L33.632,285.869" style="fill:none;stroke:rgb(255,74,164);stroke-width:1px;stroke-linecap:butt;"/>
            </g>
        </g>
        <g transform="matrix(1,0,0,1,-131.209,-84.2117)">
            <text x="276.538px" y="616.64px" style="font-family:'Karla-SemiBold', 'Karla', sans-serif;font-weight:600;font-size:12.1px;fill:rgb(255,74,164);">2nd stage GLM</text>
        </g>
    </g>
    <defs>
        <radialGradient id="_Radial1" cx="0" cy="0" r="1" gradientUnits="userSpaceOnUse" gradientTransform="matrix(726.905,0,0,298.16,408.229,316.88)"><stop offset="0" style="stop-color:white;stop-opacity:0"/><stop offset="0.48" style="stop-color:white;stop-opacity:1"/><stop offset="1" style="stop-color:white;stop-opacity:1"/></radialGradient>
        <linearGradient id="_Linear2" x1="0" y1="0" x2="1" y2="0" gradientUnits="userSpaceOnUse" gradientTransform="matrix(127.728,0,0,34.704,506.003,339.214)"><stop offset="0" style="stop-color:rgb(0,179,255);stop-opacity:1"/><stop offset="1" style="stop-color:rgb(0,77,255);stop-opacity:1"/></linearGradient>
    </defs>
</svg>
