<?xml version="1.0" standalone="no"?>
<!DOCTYPE svg PUBLIC "-//W3C//DTD SVG 20010904//EN"
 "http://www.w3.org/TR/2001/REC-SVG-20010904/DTD/svg10.dtd">
<svg version="1.0" xmlns="http://www.w3.org/2000/svg"
 width="400.000000pt" height="400.000000pt" viewBox="0 0 400.000000 400.000000"
 preserveAspectRatio="xMidYMid meet">
<metadata>
Created by potrace 1.14, written by Peter Selinger 2001-2017
</metadata>
<g transform="translate(0.000000,400.000000) scale(0.100000,-0.100000)"
fill="#000000" stroke="none">
<path d="M1830 3803 c-583 -59 -1050 -430 -1276 -1013 -188 -488 -157 -1144
77 -1612 218 -436 587 -735 1024 -828 142 -30 404 -38 540 -16 279 46 546 186
755 396 58 58 132 145 165 194 l60 88 5 -248 c5 -273 8 -285 70 -337 32 -27
87 -47 130 -47 68 1 159 75 180 147 8 27 10 480 8 1555 l-3 1516 -30 44 c-43
62 -104 91 -178 85 -64 -6 -108 -32 -149 -89 -22 -32 -23 -42 -28 -272 l-5
-238 -49 77 c-95 150 -292 332 -461 425 -246 135 -562 201 -835 173z m353
-374 c365 -54 682 -298 866 -667 93 -185 138 -375 147 -617 15 -379 -64 -678
-254 -965 -111 -167 -302 -328 -481 -406 -223 -97 -500 -117 -745 -54 -370 94
-677 402 -815 817 -62 185 -75 275 -75 528 -1 256 10 339 65 512 102 321 304
577 574 728 87 49 239 103 339 119 100 17 283 20 379 5z"/>
</g>
</svg>
